# Blender 4.3.0
# www.blender.org
mtllib boss.mtl
o path1
v -0.004877 -0.000294 0.000000
v -0.005736 -0.001054 0.000000
v -0.005897 -0.002513 0.000000
v -0.005987 -0.003968 0.000000
v -0.005952 -0.007939 0.000000
v -0.005528 -0.007876 0.000000
v -0.003646 -0.007141 0.000000
v -0.001654 -0.006541 0.000000
v -0.001323 -0.006613 0.000000
v -0.000938 -0.006623 0.000000
v -0.000000 -0.007165 0.000000
v -0.003004 -0.008334 0.000000
v -0.005023 -0.009854 0.000000
v -0.005294 -0.010582 0.000000
v -0.005984 -0.011640 0.000000
v -0.007302 -0.012698 0.000000
v -0.008864 -0.011640 0.000000
v -0.009793 -0.010582 0.000000
v -0.010054 -0.010244 0.000000
v -0.011959 -0.008069 0.000000
v -0.012541 -0.006683 0.000000
v -0.011247 -0.004273 0.000000
v -0.010337 -0.004349 0.000000
v -0.009196 -0.004480 0.000000
v -0.008595 -0.003384 0.000000
v -0.008893 -0.002420 0.000000
v -0.009499 -0.001530 0.000000
v -0.008561 -0.000000 0.000000
v -0.008331 -0.000619 0.000000
v -0.007327 -0.002372 0.000000
v -0.007031 -0.001368 0.000000
v -0.007212 -0.000000 0.000000
v -0.006135 -0.000000 0.000000
v -0.004877 -0.000294 0.000000
v -0.009830 -0.006009 0.000000
v -0.010443 -0.006097 0.000000
v -0.011113 -0.006861 0.000000
v -0.010029 -0.007919 0.000000
v -0.009489 -0.008034 0.000000
v -0.008735 -0.006532 0.000000
v -0.009830 -0.006009 0.000000
vn -0.0000 -0.0000 1.0000
vt 0.350000 0.000000
vt 0.400000 0.000000
vt 0.375000 0.000000
vt 0.325000 0.000000
vt 0.425000 0.000000
vt 0.300000 0.000000
vt 0.450000 0.000000
vt 0.475000 0.000000
vt 0.275000 0.000000
vt 0.250000 0.000000
vt 0.100000 0.000000
vt 0.950000 0.000000
vt 0.925000 0.000000
vt 0.500000 0.000000
vt 0.975000 0.000000
vt 0.125000 0.000000
vt 0.075000 0.000000
vt 0.900000 0.000000
vt 0.150000 0.000000
vt 0.225000 0.000000
vt 0.200000 0.000000
vt 0.175000 0.000000
vt 0.875000 0.000000
vt 0.525000 0.000000
vt 1.000000 0.000000
vt 0.850000 0.000000
vt 0.575000 0.000000
vt 0.600000 0.000000
vt 0.550000 0.000000
vt 0.050000 0.000000
vt 0.625000 0.000000
vt 0.025000 0.000000
vt 0.725000 0.000000
vt 0.650000 0.000000
vt 0.750000 0.000000
vt 0.700000 0.000000
vt 0.675000 0.000000
vt 0.775000 0.000000
vt 0.000000 0.000000
vt 0.800000 0.000000
vt 0.825000 0.000000
s 0
usemtl SVGMat.001
f 15/1/1 17/2/1 16/3/1
f 14/4/1 17/2/1 15/1/1
f 14/4/1 18/5/1 17/2/1
f 13/6/1 18/5/1 14/4/1
f 13/6/1 19/7/1 18/5/1
f 13/6/1 20/8/1 19/7/1
f 12/9/1 20/8/1 13/6/1
f 11/10/1 5/11/1 12/9/1
f 5/11/1 39/12/1 12/9/1
f 39/12/1 20/8/1 12/9/1
f 39/12/1 38/13/1 20/8/1
f 38/13/1 21/14/1 20/8/1
f 5/11/1 40/15/1 39/12/1
f 11/10/1 6/16/1 5/11/1
f 4/17/1 40/15/1 5/11/1
f 37/18/1 21/14/1 38/13/1
f 11/10/1 7/19/1 6/16/1
f 10/20/1 7/19/1 11/10/1
f 10/20/1 9/21/1 7/19/1
f 9/21/1 8/22/1 7/19/1
f 36/23/1 21/14/1 37/18/1
f 36/23/1 22/24/1 21/14/1
f 4/17/1 41/25/1 40/15/1
f 35/26/1 22/24/1 36/23/1
f 41/25/1 22/24/1 35/26/1
f 4/17/1 24/27/1 41/25/1
f 24/27/1 22/24/1 41/25/1
f 4/17/1 25/28/1 24/27/1
f 23/29/1 22/24/1 24/27/1
f 3/30/1 25/28/1 4/17/1
f 3/30/1 26/31/1 25/28/1
f 2/32/1 30/33/1 3/30/1
f 30/33/1 26/31/1 3/30/1
f 30/33/1 27/34/1 26/31/1
f 2/32/1 31/35/1 30/33/1
f 29/36/1 27/34/1 30/33/1
f 29/36/1 28/37/1 27/34/1
f 2/32/1 32/38/1 31/35/1
f 1/39/1 32/38/1 2/32/1
f 1/39/1 33/40/1 34/41/1
f 33/40/1 32/38/1 1/39/1
o path1
v -0.004877 -0.000294 0.000000
v -0.005736 -0.001054 0.000000
v -0.005897 -0.002513 0.000000
v -0.005987 -0.003968 0.000000
v -0.005952 -0.007939 0.000000
v -0.005528 -0.007876 0.000000
v -0.003646 -0.007141 0.000000
v -0.001654 -0.006541 0.000000
v -0.001323 -0.006613 0.000000
v -0.000938 -0.006623 0.000000
v -0.000000 -0.007165 0.000000
v -0.003004 -0.008334 0.000000
v -0.005023 -0.009854 0.000000
v -0.005294 -0.010582 0.000000
v -0.005984 -0.011640 0.000000
v -0.007302 -0.012698 0.000000
v -0.008864 -0.011640 0.000000
v -0.009793 -0.010582 0.000000
v -0.010054 -0.010244 0.000000
v -0.011959 -0.008069 0.000000
v -0.012541 -0.006683 0.000000
v -0.011247 -0.004273 0.000000
v -0.010337 -0.004349 0.000000
v -0.009196 -0.004480 0.000000
v -0.008595 -0.003384 0.000000
v -0.008893 -0.002420 0.000000
v -0.009499 -0.001530 0.000000
v -0.008561 -0.000000 0.000000
v -0.008331 -0.000619 0.000000
v -0.007327 -0.002372 0.000000
v -0.007031 -0.001368 0.000000
v -0.007212 -0.000000 0.000000
v -0.006135 -0.000000 0.000000
v -0.004877 -0.000294 0.000000
v -0.009830 -0.006009 0.000000
v -0.010443 -0.006097 0.000000
v -0.011113 -0.006861 0.000000
v -0.010029 -0.007919 0.000000
v -0.009489 -0.008034 0.000000
v -0.008735 -0.006532 0.000000
v -0.009830 -0.006009 0.000000
vn -0.0000 -0.0000 1.0000
vt 0.350000 0.000000
vt 0.400000 0.000000
vt 0.375000 0.000000
vt 0.325000 0.000000
vt 0.425000 0.000000
vt 0.300000 0.000000
vt 0.450000 0.000000
vt 0.475000 0.000000
vt 0.275000 0.000000
vt 0.250000 0.000000
vt 0.100000 0.000000
vt 0.950000 0.000000
vt 0.925000 0.000000
vt 0.500000 0.000000
vt 0.975000 0.000000
vt 0.125000 0.000000
vt 0.075000 0.000000
vt 0.900000 0.000000
vt 0.150000 0.000000
vt 0.225000 0.000000
vt 0.200000 0.000000
vt 0.175000 0.000000
vt 0.875000 0.000000
vt 0.525000 0.000000
vt 1.000000 0.000000
vt 0.850000 0.000000
vt 0.575000 0.000000
vt 0.600000 0.000000
vt 0.550000 0.000000
vt 0.050000 0.000000
vt 0.625000 0.000000
vt 0.025000 0.000000
vt 0.725000 0.000000
vt 0.650000 0.000000
vt 0.750000 0.000000
vt 0.700000 0.000000
vt 0.675000 0.000000
vt 0.775000 0.000000
vt 0.000000 0.000000
vt 0.800000 0.000000
vt 0.825000 0.000000
s 0
usemtl SVGMat.001
f 56/42/2 58/43/2 57/44/2
f 55/45/2 58/43/2 56/42/2
f 55/45/2 59/46/2 58/43/2
f 54/47/2 59/46/2 55/45/2
f 54/47/2 60/48/2 59/46/2
f 54/47/2 61/49/2 60/48/2
f 53/50/2 61/49/2 54/47/2
f 52/51/2 46/52/2 53/50/2
f 46/52/2 80/53/2 53/50/2
f 80/53/2 61/49/2 53/50/2
f 80/53/2 79/54/2 61/49/2
f 79/54/2 62/55/2 61/49/2
f 46/52/2 81/56/2 80/53/2
f 52/51/2 47/57/2 46/52/2
f 45/58/2 81/56/2 46/52/2
f 78/59/2 62/55/2 79/54/2
f 52/51/2 48/60/2 47/57/2
f 51/61/2 48/60/2 52/51/2
f 51/61/2 50/62/2 48/60/2
f 50/62/2 49/63/2 48/60/2
f 77/64/2 62/55/2 78/59/2
f 77/64/2 63/65/2 62/55/2
f 45/58/2 82/66/2 81/56/2
f 76/67/2 63/65/2 77/64/2
f 82/66/2 63/65/2 76/67/2
f 45/58/2 65/68/2 82/66/2
f 65/68/2 63/65/2 82/66/2
f 45/58/2 66/69/2 65/68/2
f 64/70/2 63/65/2 65/68/2
f 44/71/2 66/69/2 45/58/2
f 44/71/2 67/72/2 66/69/2
f 43/73/2 71/74/2 44/71/2
f 71/74/2 67/72/2 44/71/2
f 71/74/2 68/75/2 67/72/2
f 43/73/2 72/76/2 71/74/2
f 70/77/2 68/75/2 71/74/2
f 70/77/2 69/78/2 68/75/2
f 43/73/2 73/79/2 72/76/2
f 42/80/2 73/79/2 43/73/2
f 42/80/2 74/81/2 75/82/2
f 74/81/2 73/79/2 42/80/2
