# Blender 4.2.3 LTS
# www.blender.org
o path1.001
v 0.000083 -0.000315 0.000000
v 0.000122 -0.001133 0.000000
v 0.000876 -0.001379 0.000000
v 0.001396 -0.001195 0.000000
v 0.001527 -0.000696 0.000000
v 0.001396 -0.000196 0.000000
v 0.000876 -0.000012 0.000000
v 0.000355 -0.000052 0.000000
vn -0.0000 -0.0000 -1.0000
vt 0.142857 0.000000
vt 0.428571 0.000000
vt 0.285714 0.000000
vt 0.571429 0.000000
vt 0.000000 0.000000
vt 0.714286 0.000000
vt 1.000000 0.000000
vt 0.857143 0.000000
s 0
f 2/1/1 4/2/1 3/3/1
f 2/1/1 5/4/1 4/2/1
f 1/5/1 5/4/1 2/1/1
f 1/5/1 6/6/1 5/4/1
f 8/7/1 6/6/1 1/5/1
f 8/7/1 7/8/1 6/6/1
o path1.001
v 0.000083 -0.000315 0.000000
v 0.000122 -0.001133 0.000000
v 0.000876 -0.001379 0.000000
v 0.001396 -0.001195 0.000000
v 0.001527 -0.000696 0.000000
v 0.001396 -0.000196 0.000000
v 0.000876 -0.000012 0.000000
v 0.000355 -0.000052 0.000000
vn -0.0000 -0.0000 -1.0000
vt 0.142857 0.000000
vt 0.428571 0.000000
vt 0.285714 0.000000
vt 0.571429 0.000000
vt 0.000000 0.000000
vt 0.714286 0.000000
vt 1.000000 0.000000
vt 0.857143 0.000000
s 0
f 10/9/2 12/10/2 11/11/2
f 10/9/2 13/12/2 12/10/2
f 9/13/2 13/12/2 10/9/2
f 9/13/2 14/14/2 13/12/2
f 16/15/2 14/14/2 9/13/2
f 16/15/2 15/16/2 14/14/2
