####
#
# OBJ File Generated by Meshlab
#
####
# Object bullet_1.obj
#
# Vertices: 24
# Faces: 20
#
####
mtllib ./bullet_1.obj.mtl

vn 0.0000000 0.0000000 -2.5946190
v 0.0000830 -0.0003150 0.0000000
vn 0.0000000 0.0000000 -2.3944643
v 0.0000200 -0.0009110 0.0000000
vn 0.0000000 0.0000000 -2.3652601
v 0.0003040 -0.0012910 0.0000000
vn 0.0000000 0.0000000 -2.7504618
v 0.0008760 -0.0013790 0.0000000
vn 0.0000000 0.0000000 -2.5701709
v 0.0012750 -0.0012820 0.0000000
vn 0.0000000 0.0000000 -2.5203674
v 0.0014740 -0.0010730 0.0000000
vn 0.0000000 0.0000000 -2.8626213
v 0.0015270 -0.0006960 0.0000000
vn 0.0000000 0.0000000 -2.5200028
v 0.0014740 -0.0003180 0.0000000
vn 0.0000000 0.0000000 -2.5701697
v 0.0012750 -0.0001090 0.0000000
vn 0.0000000 0.0000000 -2.9004378
v 0.0008760 -0.0000120 0.0000000
vn 0.0000000 0.0000000 -2.7760897
v 0.0005020 -0.0000130 0.0000000
vn 0.0000000 0.0000000 -2.5912604
v 0.0002350 -0.0001160 0.0000000
vn 0.0000000 0.0000000 -2.5946190
v 0.0000830 -0.0003150 0.0000000
vn 0.0000000 0.0000000 -2.3944643
v 0.0000200 -0.0009110 0.0000000
vn 0.0000000 0.0000000 -2.3652601
v 0.0003040 -0.0012910 0.0000000
vn 0.0000000 0.0000000 -2.7504618
v 0.0008760 -0.0013790 0.0000000
vn 0.0000000 0.0000000 -2.5701709
v 0.0012750 -0.0012820 0.0000000
vn 0.0000000 0.0000000 -2.5203674
v 0.0014740 -0.0010730 0.0000000
vn 0.0000000 0.0000000 -2.8626213
v 0.0015270 -0.0006960 0.0000000
vn 0.0000000 0.0000000 -2.5200028
v 0.0014740 -0.0003180 0.0000000
vn 0.0000000 0.0000000 -2.5701697
v 0.0012750 -0.0001090 0.0000000
vn 0.0000000 0.0000000 -2.9004378
v 0.0008760 -0.0000120 0.0000000
vn 0.0000000 0.0000000 -2.7760897
v 0.0005020 -0.0000130 0.0000000
vn 0.0000000 0.0000000 -2.5912604
v 0.0002350 -0.0001160 0.0000000
# 24 vertices, 0 vertices normals


usemtl material_0
vt 0.1818180 0.0000000
vt 0.3636360 0.0000000
vt 0.2727270 0.0000000
f 3/1/3 5/2/5 4/3/4
vt 0.0909090 0.0000000
f 2/4/2 5/2/5 3/1/3
vt 0.4545450 0.0000000
f 2/4/2 6/5/6 5/2/5
vt 0.5454550 0.0000000
f 2/4/2 7/6/7 6/5/6
vt 0.0000000 0.0000000
f 1/7/1 7/6/7 2/4/2
vt 0.6363640 0.0000000
f 1/7/1 8/8/8 7/6/7
vt 0.7272730 0.0000000
f 1/7/1 9/9/9 8/8/8
vt 1.0000000 0.0000000
f 12/10/12 9/9/9 1/7/1
vt 0.9090910 0.0000000
f 11/11/11 9/9/9 12/10/12
vt 0.8181820 0.0000000
f 11/11/11 10/12/10 9/9/9
f 15/1/15 17/2/17 16/3/16
f 14/4/14 17/2/17 15/1/15
f 14/4/14 18/5/18 17/2/17
f 14/4/14 19/6/19 18/5/18
f 13/7/13 19/6/19 14/4/14
f 13/7/13 20/8/20 19/6/19
f 13/7/13 21/9/21 20/8/20
f 24/10/24 21/9/21 13/7/13
f 23/11/23 21/9/21 24/10/24
f 23/11/23 22/12/22 21/9/21
# 20 faces, 12 coords texture

# End of File
