# Blender 4.3.0
# www.blender.org
mtllib hacker.mtl
o path1
v 0.000529 -0.002381 0.000000
v 0.000794 -0.004762 0.000000
v 0.000791 -0.005865 0.000000
v 0.000002 -0.010198 0.000000
v 0.001191 -0.012866 0.000000
v 0.002117 -0.014946 0.000000
v 0.004126 -0.016878 0.000000
v 0.005689 -0.016798 0.000000
v 0.005767 -0.014867 0.000000
v 0.006230 -0.012789 0.000000
v 0.006615 -0.011586 0.000000
v 0.008617 -0.008994 0.000000
v 0.009525 -0.008516 0.000000
v 0.007720 -0.007183 0.000000
v 0.006615 -0.007289 0.000000
v 0.006615 -0.006851 0.000000
v 0.006218 -0.006084 0.000000
v 0.006086 -0.004762 0.000000
v 0.006350 -0.003365 0.000000
v 0.006880 -0.001587 0.000000
v 0.007409 -0.000603 0.000000
v 0.007409 0.000000 0.000000
v 0.006086 0.000000 0.000000
v 0.004763 0.000000 0.000000
v 0.004763 -0.000926 0.000000
v 0.004498 -0.001852 0.000000
v 0.004233 -0.002664 0.000000
v 0.003326 -0.004233 0.000000
v 0.003175 -0.003703 0.000000
v 0.002910 -0.003174 0.000000
v 0.002646 -0.002535 0.000000
v 0.002315 -0.001742 0.000000
v 0.002315 -0.001433 0.000000
v 0.002646 -0.000639 0.000000
v 0.002646 0.000000 0.000000
v 0.001588 0.000000 0.000000
v 0.000529 0.000000 0.000000
vn -0.0000 -0.0000 -1.0000
vt 0.138889 0.000000
vt 0.194444 0.000000
vt 0.166667 0.000000
vt 0.222222 0.000000
vt 0.111111 0.000000
vt 0.250000 0.000000
vt 0.083333 0.000000
vt 0.277778 0.000000
vt 0.305556 0.000000
vt 0.055556 0.000000
vt 0.333333 0.000000
vt 0.388889 0.000000
vt 0.361111 0.000000
vt 0.416667 0.000000
vt 0.444444 0.000000
vt 0.472222 0.000000
vt 0.027778 0.000000
vt 0.000000 0.000000
vt 0.750000 0.000000
vt 0.500000 0.000000
vt 0.777778 0.000000
vt 0.722222 0.000000
vt 0.805556 0.000000
vt 0.527778 0.000000
vt 0.833333 0.000000
vt 0.694444 0.000000
vt 0.861111 0.000000
vt 1.000000 0.000000
vt 0.666667 0.000000
vt 0.888889 0.000000
vt 0.555556 0.000000
vt 0.916667 0.000000
vt 0.638889 0.000000
vt 0.944444 0.000000
vt 0.583333 0.000000
vt 0.972222 0.000000
vt 0.611111 0.000000
s 0
usemtl SVGMat.001
f 6/1/1 8/2/1 7/3/1
f 6/1/1 9/4/1 8/2/1
f 5/5/1 9/4/1 6/1/1
f 5/5/1 10/6/1 9/4/1
f 4/7/1 10/6/1 5/5/1
f 4/7/1 11/8/1 10/6/1
f 4/7/1 12/9/1 11/8/1
f 3/10/1 12/9/1 4/7/1
f 3/10/1 13/11/1 12/9/1
f 3/10/1 15/12/1 13/11/1
f 15/12/1 14/13/1 13/11/1
f 3/10/1 16/14/1 15/12/1
f 3/10/1 17/15/1 16/14/1
f 3/10/1 18/16/1 17/15/1
f 2/17/1 18/16/1 3/10/1
f 1/18/1 28/19/1 2/17/1
f 28/19/1 18/16/1 2/17/1
f 28/19/1 19/20/1 18/16/1
f 1/18/1 29/21/1 28/19/1
f 27/22/1 19/20/1 28/19/1
f 1/18/1 30/23/1 29/21/1
f 27/22/1 20/24/1 19/20/1
f 1/18/1 31/25/1 30/23/1
f 26/26/1 20/24/1 27/22/1
f 1/18/1 32/27/1 31/25/1
f 37/28/1 32/27/1 1/18/1
f 25/29/1 20/24/1 26/26/1
f 37/28/1 33/30/1 32/27/1
f 25/29/1 21/31/1 20/24/1
f 37/28/1 34/32/1 33/30/1
f 24/33/1 21/31/1 25/29/1
f 37/28/1 35/34/1 34/32/1
f 24/33/1 22/35/1 21/31/1
f 36/36/1 35/34/1 37/28/1
f 23/37/1 22/35/1 24/33/1
o path1
v 0.000529 -0.002381 0.000000
v 0.000794 -0.004762 0.000000
v 0.000791 -0.005865 0.000000
v 0.000002 -0.010198 0.000000
v 0.001191 -0.012866 0.000000
v 0.002117 -0.014946 0.000000
v 0.004126 -0.016878 0.000000
v 0.005689 -0.016798 0.000000
v 0.005767 -0.014867 0.000000
v 0.006230 -0.012789 0.000000
v 0.006615 -0.011586 0.000000
v 0.008617 -0.008994 0.000000
v 0.009525 -0.008516 0.000000
v 0.007720 -0.007183 0.000000
v 0.006615 -0.007289 0.000000
v 0.006615 -0.006851 0.000000
v 0.006218 -0.006084 0.000000
v 0.006086 -0.004762 0.000000
v 0.006350 -0.003365 0.000000
v 0.006880 -0.001587 0.000000
v 0.007409 -0.000603 0.000000
v 0.007409 0.000000 0.000000
v 0.006086 0.000000 0.000000
v 0.004763 0.000000 0.000000
v 0.004763 -0.000926 0.000000
v 0.004498 -0.001852 0.000000
v 0.004233 -0.002664 0.000000
v 0.003326 -0.004233 0.000000
v 0.003175 -0.003703 0.000000
v 0.002910 -0.003174 0.000000
v 0.002646 -0.002535 0.000000
v 0.002315 -0.001742 0.000000
v 0.002315 -0.001433 0.000000
v 0.002646 -0.000639 0.000000
v 0.002646 0.000000 0.000000
v 0.001588 0.000000 0.000000
v 0.000529 0.000000 0.000000
vn -0.0000 -0.0000 -1.0000
vt 0.138889 0.000000
vt 0.194444 0.000000
vt 0.166667 0.000000
vt 0.222222 0.000000
vt 0.111111 0.000000
vt 0.250000 0.000000
vt 0.083333 0.000000
vt 0.277778 0.000000
vt 0.305556 0.000000
vt 0.055556 0.000000
vt 0.333333 0.000000
vt 0.388889 0.000000
vt 0.361111 0.000000
vt 0.416667 0.000000
vt 0.444444 0.000000
vt 0.472222 0.000000
vt 0.027778 0.000000
vt 0.000000 0.000000
vt 0.750000 0.000000
vt 0.500000 0.000000
vt 0.777778 0.000000
vt 0.722222 0.000000
vt 0.805556 0.000000
vt 0.527778 0.000000
vt 0.833333 0.000000
vt 0.694444 0.000000
vt 0.861111 0.000000
vt 1.000000 0.000000
vt 0.666667 0.000000
vt 0.888889 0.000000
vt 0.555556 0.000000
vt 0.916667 0.000000
vt 0.638889 0.000000
vt 0.944444 0.000000
vt 0.583333 0.000000
vt 0.972222 0.000000
vt 0.611111 0.000000
s 0
usemtl SVGMat.001
f 43/38/2 45/39/2 44/40/2
f 43/38/2 46/41/2 45/39/2
f 42/42/2 46/41/2 43/38/2
f 42/42/2 47/43/2 46/41/2
f 41/44/2 47/43/2 42/42/2
f 41/44/2 48/45/2 47/43/2
f 41/44/2 49/46/2 48/45/2
f 40/47/2 49/46/2 41/44/2
f 40/47/2 50/48/2 49/46/2
f 40/47/2 52/49/2 50/48/2
f 52/49/2 51/50/2 50/48/2
f 40/47/2 53/51/2 52/49/2
f 40/47/2 54/52/2 53/51/2
f 40/47/2 55/53/2 54/52/2
f 39/54/2 55/53/2 40/47/2
f 38/55/2 65/56/2 39/54/2
f 65/56/2 55/53/2 39/54/2
f 65/56/2 56/57/2 55/53/2
f 38/55/2 66/58/2 65/56/2
f 64/59/2 56/57/2 65/56/2
f 38/55/2 67/60/2 66/58/2
f 64/59/2 57/61/2 56/57/2
f 38/55/2 68/62/2 67/60/2
f 63/63/2 57/61/2 64/59/2
f 38/55/2 69/64/2 68/62/2
f 74/65/2 69/64/2 38/55/2
f 62/66/2 57/61/2 63/63/2
f 74/65/2 70/67/2 69/64/2
f 62/66/2 58/68/2 57/61/2
f 74/65/2 71/69/2 70/67/2
f 61/70/2 58/68/2 62/66/2
f 74/65/2 72/71/2 71/69/2
f 61/70/2 59/72/2 58/68/2
f 73/73/2 72/71/2 74/65/2
f 60/74/2 59/72/2 61/70/2
