####
#
# OBJ File Generated by Meshlab
#
####
# Object player_1.obj
#
# Vertices: 192
# Faces: 188
#
####
mtllib ./player_1.obj.mtl

vn 0.0000000 0.0000000 -1.3685578
v 0.0005420 -0.0014030 0.0000000
vn 0.0000000 0.0000000 -3.3664966
v 0.0005130 -0.0020000 0.0000000
vn 0.0000000 0.0000000 -3.0280638
v 0.0003450 -0.0025990 0.0000000
vn 0.0000000 0.0000000 -2.6594019
v 0.0002500 -0.0031880 0.0000000
vn 0.0000000 0.0000000 -3.1687737
v 0.0004400 -0.0037570 0.0000000
vn 0.0000000 0.0000000 -3.0683653
v 0.0006160 -0.0043360 0.0000000
vn 0.0000000 0.0000000 -3.3158092
v 0.0008410 -0.0049190 0.0000000
vn 0.0000000 0.0000000 -3.5890775
v 0.0009560 -0.0055040 0.0000000
vn 0.0000000 0.0000000 -2.9261107
v 0.0008040 -0.0060910 0.0000000
vn 0.0000000 0.0000000 -3.0629268
v 0.0007800 -0.0067240 0.0000000
vn 0.0000000 0.0000000 -3.2125998
v 0.0008060 -0.0073600 0.0000000
vn 0.0000000 0.0000000 -3.3709297
v 0.0007870 -0.0079900 0.0000000
vn 0.0000000 0.0000000 -3.1932106
v 0.0006240 -0.0086040 0.0000000
vn 0.0000000 0.0000000 -3.1622677
v 0.0004420 -0.0091700 0.0000000
vn 0.0000000 0.0000000 -3.0874114
v 0.0002470 -0.0097360 0.0000000
vn 0.0000000 0.0000000 -3.0066001
v 0.0000840 -0.0103080 0.0000000
vn 0.0000000 0.0000000 -2.7198272
v 0.0000000 -0.0108930 0.0000000
vn 0.0000000 0.0000000 -2.9873681
v 0.0001780 -0.0115140 0.0000000
vn 0.0000000 0.0000000 -3.0179925
v 0.0004510 -0.0121040 0.0000000
vn 0.0000000 0.0000000 -3.0451424
v 0.0007960 -0.0126580 0.0000000
vn 0.0000000 0.0000000 -3.0478795
v 0.0011880 -0.0131700 0.0000000
vn 0.0000000 0.0000000 -3.2988586
v 0.0015900 -0.0136040 0.0000000
vn 0.0000000 0.0000000 -3.3890209
v 0.0019200 -0.0140970 0.0000000
vn 0.0000000 0.0000000 -3.4924688
v 0.0021150 -0.0146440 0.0000000
vn 0.0000000 0.0000000 -3.0348873
v 0.0021100 -0.0152370 0.0000000
vn 0.0000000 0.0000000 -2.8724461
v 0.0021660 -0.0158050 0.0000000
vn 0.0000000 0.0000000 -2.7856393
v 0.0023750 -0.0163480 0.0000000
vn 0.0000000 0.0000000 -2.6424894
v 0.0027450 -0.0167670 0.0000000
vn 0.0000000 0.0000000 -2.9382448
v 0.0032820 -0.0169620 0.0000000
vn 0.0000000 0.0000000 -2.9373283
v 0.0039190 -0.0170550 0.0000000
vn 0.0000000 0.0000000 -2.8295012
v 0.0045760 -0.0170160 0.0000000
vn 0.0000000 0.0000000 -2.6781130
v 0.0051640 -0.0167870 0.0000000
vn 0.0000000 0.0000000 -2.6901882
v 0.0055960 -0.0163100 0.0000000
vn 0.0000000 0.0000000 -2.8741353
v 0.0058250 -0.0155270 0.0000000
vn 0.0000000 0.0000000 -3.1160159
v 0.0058390 -0.0147070 0.0000000
vn 0.0000000 0.0000000 -3.3542824
v 0.0058320 -0.0138840 0.0000000
vn 0.0000000 0.0000000 -3.5524311
v 0.0059960 -0.0130920 0.0000000
vn 0.0000000 0.0000000 -3.0530498
v 0.0063810 -0.0125470 0.0000000
vn 0.0000000 0.0000000 -2.9224420
v 0.0067210 -0.0119620 0.0000000
vn 0.0000000 0.0000000 -2.7774386
v 0.0069200 -0.0113350 0.0000000
vn 0.0000000 0.0000000 -3.0767798
v 0.0068820 -0.0106670 0.0000000
vn 0.0000000 0.0000000 -3.4703839
v 0.0068100 -0.0100780 0.0000000
vn 0.0000000 0.0000000 -3.6580863
v 0.0069340 -0.0094880 0.0000000
vn 0.0000000 0.0000000 -3.9738169
v 0.0072830 -0.0090930 0.0000000
vn 0.0000000 0.0000000 -3.1836486
v 0.0078860 -0.0090840 0.0000000
vn 0.0000000 0.0000000 -2.9298656
v 0.0083650 -0.0090970 0.0000000
vn 0.0000000 0.0000000 -2.7846494
v 0.0088470 -0.0090070 0.0000000
vn 0.0000000 0.0000000 -2.5797133
v 0.0092410 -0.0087700 0.0000000
vn 0.0000000 0.0000000 -2.3482437
v 0.0094570 -0.0083420 0.0000000
vn 0.0000000 0.0000000 -2.5736389
v 0.0092410 -0.0077030 0.0000000
vn 0.0000000 0.0000000 -2.7918649
v 0.0087270 -0.0072900 0.0000000
vn 0.0000000 0.0000000 -2.9300115
v 0.0080610 -0.0070640 0.0000000
vn 0.0000000 0.0000000 -3.0342684
v 0.0073890 -0.0069860 0.0000000
vn 0.0000000 0.0000000 -3.1313386
v 0.0069030 -0.0069820 0.0000000
vn 0.0000000 0.0000000 -3.2741113
v 0.0064090 -0.0069830 0.0000000
vn 0.0000000 0.0000000 -3.4276361
v 0.0059290 -0.0069200 0.0000000
vn 0.0000000 0.0000000 -4.6293359
v 0.0054860 -0.0067240 0.0000000
vn 0.0000000 0.0000000 -3.1276717
v 0.0057240 -0.0060370 0.0000000
vn 0.0000000 0.0000000 -3.1324563
v 0.0059520 -0.0053480 0.0000000
vn 0.0000000 0.0000000 -3.1359293
v 0.0061740 -0.0046560 0.0000000
vn 0.0000000 0.0000000 -3.2170053
v 0.0063920 -0.0039630 0.0000000
vn 0.0000000 0.0000000 -2.6600571
v 0.0066090 -0.0034200 0.0000000
vn 0.0000000 0.0000000 -3.1187944
v 0.0065490 -0.0028300 0.0000000
vn 0.0000000 0.0000000 -3.5959866
v 0.0064760 -0.0022450 0.0000000
vn 0.0000000 0.0000000 -3.5901542
v 0.0066570 -0.0017170 0.0000000
vn 0.0000000 0.0000000 -2.8089604
v 0.0070340 -0.0013350 0.0000000
vn 0.0000000 0.0000000 -2.5658081
v 0.0072660 -0.0008500 0.0000000
vn 0.0000000 0.0000000 -2.1874900
v 0.0072080 -0.0004050 0.0000000
vn 0.0000000 0.0000000 -2.8378398
v 0.0067190 -0.0001460 0.0000000
vn 0.0000000 0.0000000 -2.9912558
v 0.0062390 -0.0000570 0.0000000
vn 0.0000000 0.0000000 -2.9135995
v 0.0057240 -0.0000400 0.0000000
vn 0.0000000 0.0000000 -2.7583649
v 0.0052430 -0.0001350 0.0000000
vn 0.0000000 0.0000000 -2.2917812
v 0.0048630 -0.0003830 0.0000000
vn 0.0000000 0.0000000 -3.1670089
v 0.0047700 -0.0010300 0.0000000
vn 0.0000000 0.0000000 -3.2079408
v 0.0046610 -0.0016720 0.0000000
vn 0.0000000 0.0000000 -3.2486491
v 0.0045100 -0.0023040 0.0000000
vn 0.0000000 0.0000000 -3.0155425
v 0.0042910 -0.0029200 0.0000000
vn 0.0000000 0.0000000 -3.5190949
v 0.0041800 -0.0034270 0.0000000
vn 0.0000000 0.0000000 -3.7203708
v 0.0038720 -0.0038840 0.0000000
vn 0.0000000 0.0000000 -4.3523202
v 0.0034830 -0.0040480 0.0000000
vn 0.0000000 0.0000000 -3.3864155
v 0.0031320 -0.0036780 0.0000000
vn 0.0000000 0.0000000 -3.1324487
v 0.0027970 -0.0030850 0.0000000
vn 0.0000000 0.0000000 -3.3588612
v 0.0024450 -0.0024750 0.0000000
vn 0.0000000 0.0000000 -3.6196351
v 0.0022440 -0.0018390 0.0000000
vn 0.0000000 0.0000000 -3.2031136
v 0.0023600 -0.0011710 0.0000000
vn 0.0000000 0.0000000 -2.1622925
v 0.0025110 -0.0005360 0.0000000
vn 0.0000000 0.0000000 -2.5403910
v 0.0021470 -0.0001420 0.0000000
vn 0.0000000 0.0000000 -2.7244275
v 0.0015230 -0.0000000 0.0000000
vn 0.0000000 0.0000000 -2.7286546
v 0.0008950 -0.0001230 0.0000000
vn 0.0000000 0.0000000 -2.3948250
v 0.0005720 -0.0003470 0.0000000
vn 0.0000000 0.0000000 -2.8212941
v 0.0005010 -0.0006680 0.0000000
vn 0.0000000 0.0000000 -3.2360153
v 0.0005390 -0.0010370 0.0000000
vn 0.0000000 0.0000000 -1.8297693
v 0.0005420 -0.0014030 0.0000000
vn 0.0000000 0.0000000 0.0000000
v 0.0005420 -0.0014030 0.0000000
vn 0.0000000 0.0000000 0.0000000
v 0.0005420 -0.0014030 0.0000000
vn 0.0000000 0.0000000 0.0000000
v 0.0005420 -0.0014030 0.0000000
vn 0.0000000 0.0000000 -1.3685578
v 0.0005420 -0.0014030 0.0000000
vn 0.0000000 0.0000000 -3.3664966
v 0.0005130 -0.0020000 0.0000000
vn 0.0000000 0.0000000 -3.0280638
v 0.0003450 -0.0025990 0.0000000
vn 0.0000000 0.0000000 -2.6594019
v 0.0002500 -0.0031880 0.0000000
vn 0.0000000 0.0000000 -3.1687737
v 0.0004400 -0.0037570 0.0000000
vn 0.0000000 0.0000000 -3.0683653
v 0.0006160 -0.0043360 0.0000000
vn 0.0000000 0.0000000 -3.3158092
v 0.0008410 -0.0049190 0.0000000
vn 0.0000000 0.0000000 -3.5890775
v 0.0009560 -0.0055040 0.0000000
vn 0.0000000 0.0000000 -2.9261107
v 0.0008040 -0.0060910 0.0000000
vn 0.0000000 0.0000000 -3.0629268
v 0.0007800 -0.0067240 0.0000000
vn 0.0000000 0.0000000 -3.2125998
v 0.0008060 -0.0073600 0.0000000
vn 0.0000000 0.0000000 -3.3709297
v 0.0007870 -0.0079900 0.0000000
vn 0.0000000 0.0000000 -3.1932106
v 0.0006240 -0.0086040 0.0000000
vn 0.0000000 0.0000000 -3.1622677
v 0.0004420 -0.0091700 0.0000000
vn 0.0000000 0.0000000 -3.0874114
v 0.0002470 -0.0097360 0.0000000
vn 0.0000000 0.0000000 -3.0066001
v 0.0000840 -0.0103080 0.0000000
vn 0.0000000 0.0000000 -2.7198272
v 0.0000000 -0.0108930 0.0000000
vn 0.0000000 0.0000000 -2.9873681
v 0.0001780 -0.0115140 0.0000000
vn 0.0000000 0.0000000 -3.0179925
v 0.0004510 -0.0121040 0.0000000
vn 0.0000000 0.0000000 -3.0451424
v 0.0007960 -0.0126580 0.0000000
vn 0.0000000 0.0000000 -3.0478795
v 0.0011880 -0.0131700 0.0000000
vn 0.0000000 0.0000000 -3.2988586
v 0.0015900 -0.0136040 0.0000000
vn 0.0000000 0.0000000 -3.3890209
v 0.0019200 -0.0140970 0.0000000
vn 0.0000000 0.0000000 -3.4924688
v 0.0021150 -0.0146440 0.0000000
vn 0.0000000 0.0000000 -3.0348873
v 0.0021100 -0.0152370 0.0000000
vn 0.0000000 0.0000000 -2.8724461
v 0.0021660 -0.0158050 0.0000000
vn 0.0000000 0.0000000 -2.7856393
v 0.0023750 -0.0163480 0.0000000
vn 0.0000000 0.0000000 -2.6424894
v 0.0027450 -0.0167670 0.0000000
vn 0.0000000 0.0000000 -2.9382448
v 0.0032820 -0.0169620 0.0000000
vn 0.0000000 0.0000000 -2.9373283
v 0.0039190 -0.0170550 0.0000000
vn 0.0000000 0.0000000 -2.8295012
v 0.0045760 -0.0170160 0.0000000
vn 0.0000000 0.0000000 -2.6781130
v 0.0051640 -0.0167870 0.0000000
vn 0.0000000 0.0000000 -2.6901882
v 0.0055960 -0.0163100 0.0000000
vn 0.0000000 0.0000000 -2.8741353
v 0.0058250 -0.0155270 0.0000000
vn 0.0000000 0.0000000 -3.1160159
v 0.0058390 -0.0147070 0.0000000
vn 0.0000000 0.0000000 -3.3542824
v 0.0058320 -0.0138840 0.0000000
vn 0.0000000 0.0000000 -3.5524311
v 0.0059960 -0.0130920 0.0000000
vn 0.0000000 0.0000000 -3.0530498
v 0.0063810 -0.0125470 0.0000000
vn 0.0000000 0.0000000 -2.9224420
v 0.0067210 -0.0119620 0.0000000
vn 0.0000000 0.0000000 -2.7774386
v 0.0069200 -0.0113350 0.0000000
vn 0.0000000 0.0000000 -3.0767798
v 0.0068820 -0.0106670 0.0000000
vn 0.0000000 0.0000000 -3.4703839
v 0.0068100 -0.0100780 0.0000000
vn 0.0000000 0.0000000 -3.6580863
v 0.0069340 -0.0094880 0.0000000
vn 0.0000000 0.0000000 -3.9738169
v 0.0072830 -0.0090930 0.0000000
vn 0.0000000 0.0000000 -3.1836486
v 0.0078860 -0.0090840 0.0000000
vn 0.0000000 0.0000000 -2.9298656
v 0.0083650 -0.0090970 0.0000000
vn 0.0000000 0.0000000 -2.7846494
v 0.0088470 -0.0090070 0.0000000
vn 0.0000000 0.0000000 -2.5797133
v 0.0092410 -0.0087700 0.0000000
vn 0.0000000 0.0000000 -2.3482437
v 0.0094570 -0.0083420 0.0000000
vn 0.0000000 0.0000000 -2.5736389
v 0.0092410 -0.0077030 0.0000000
vn 0.0000000 0.0000000 -2.7918649
v 0.0087270 -0.0072900 0.0000000
vn 0.0000000 0.0000000 -2.9300115
v 0.0080610 -0.0070640 0.0000000
vn 0.0000000 0.0000000 -3.0342684
v 0.0073890 -0.0069860 0.0000000
vn 0.0000000 0.0000000 -3.1313386
v 0.0069030 -0.0069820 0.0000000
vn 0.0000000 0.0000000 -3.2741113
v 0.0064090 -0.0069830 0.0000000
vn 0.0000000 0.0000000 -3.4276361
v 0.0059290 -0.0069200 0.0000000
vn 0.0000000 0.0000000 -4.6293359
v 0.0054860 -0.0067240 0.0000000
vn 0.0000000 0.0000000 -3.1276717
v 0.0057240 -0.0060370 0.0000000
vn 0.0000000 0.0000000 -3.1324563
v 0.0059520 -0.0053480 0.0000000
vn 0.0000000 0.0000000 -3.1359293
v 0.0061740 -0.0046560 0.0000000
vn 0.0000000 0.0000000 -3.2170053
v 0.0063920 -0.0039630 0.0000000
vn 0.0000000 0.0000000 -2.6600571
v 0.0066090 -0.0034200 0.0000000
vn 0.0000000 0.0000000 -3.1187944
v 0.0065490 -0.0028300 0.0000000
vn 0.0000000 0.0000000 -3.5959866
v 0.0064760 -0.0022450 0.0000000
vn 0.0000000 0.0000000 -3.5901542
v 0.0066570 -0.0017170 0.0000000
vn 0.0000000 0.0000000 -2.8089604
v 0.0070340 -0.0013350 0.0000000
vn 0.0000000 0.0000000 -2.5658081
v 0.0072660 -0.0008500 0.0000000
vn 0.0000000 0.0000000 -2.1874900
v 0.0072080 -0.0004050 0.0000000
vn 0.0000000 0.0000000 -2.8378398
v 0.0067190 -0.0001460 0.0000000
vn 0.0000000 0.0000000 -2.9912558
v 0.0062390 -0.0000570 0.0000000
vn 0.0000000 0.0000000 -2.9135995
v 0.0057240 -0.0000400 0.0000000
vn 0.0000000 0.0000000 -2.7583649
v 0.0052430 -0.0001350 0.0000000
vn 0.0000000 0.0000000 -2.2917812
v 0.0048630 -0.0003830 0.0000000
vn 0.0000000 0.0000000 -3.1670089
v 0.0047700 -0.0010300 0.0000000
vn 0.0000000 0.0000000 -3.2079408
v 0.0046610 -0.0016720 0.0000000
vn 0.0000000 0.0000000 -3.2486491
v 0.0045100 -0.0023040 0.0000000
vn 0.0000000 0.0000000 -3.0155425
v 0.0042910 -0.0029200 0.0000000
vn 0.0000000 0.0000000 -3.5190949
v 0.0041800 -0.0034270 0.0000000
vn 0.0000000 0.0000000 -3.7203708
v 0.0038720 -0.0038840 0.0000000
vn 0.0000000 0.0000000 -4.3523202
v 0.0034830 -0.0040480 0.0000000
vn 0.0000000 0.0000000 -3.3864155
v 0.0031320 -0.0036780 0.0000000
vn 0.0000000 0.0000000 -3.1324487
v 0.0027970 -0.0030850 0.0000000
vn 0.0000000 0.0000000 -3.3588612
v 0.0024450 -0.0024750 0.0000000
vn 0.0000000 0.0000000 -3.6196351
v 0.0022440 -0.0018390 0.0000000
vn 0.0000000 0.0000000 -3.2031136
v 0.0023600 -0.0011710 0.0000000
vn 0.0000000 0.0000000 -2.1622925
v 0.0025110 -0.0005360 0.0000000
vn 0.0000000 0.0000000 -2.5403910
v 0.0021470 -0.0001420 0.0000000
vn 0.0000000 0.0000000 -2.7244275
v 0.0015230 -0.0000000 0.0000000
vn 0.0000000 0.0000000 -2.7286546
v 0.0008950 -0.0001230 0.0000000
vn 0.0000000 0.0000000 -2.3948250
v 0.0005720 -0.0003470 0.0000000
vn 0.0000000 0.0000000 -2.8212941
v 0.0005010 -0.0006680 0.0000000
vn 0.0000000 0.0000000 -3.2360153
v 0.0005390 -0.0010370 0.0000000
vn 0.0000000 0.0000000 -1.8297693
v 0.0005420 -0.0014030 0.0000000
vn 0.0000000 0.0000000 0.0000000
v 0.0005420 -0.0014030 0.0000000
vn 0.0000000 0.0000000 0.0000000
v 0.0005420 -0.0014030 0.0000000
vn 0.0000000 0.0000000 0.0000000
v 0.0005420 -0.0014030 0.0000000
# 192 vertices, 0 vertices normals


usemtl material_0
vt 0.2947370 0.0000000
vt 0.3157890 0.0000000
vt 0.3052630 0.0000000
f 29/1/29 31/2/31 30/3/30
vt 0.3263160 0.0000000
f 29/1/29 32/4/32 31/2/31
vt 0.2842110 0.0000000
f 28/5/28 32/4/32 29/1/29
vt 0.3368420 0.0000000
f 28/5/28 33/6/33 32/4/32
vt 0.2736840 0.0000000
f 27/7/27 33/6/33 28/5/28
vt 0.2631580 0.0000000
f 26/8/26 33/6/33 27/7/27
vt 0.3473680 0.0000000
f 26/8/26 34/9/34 33/6/33
vt 0.2526320 0.0000000
f 25/10/25 34/9/34 26/8/26
vt 0.3578950 0.0000000
f 25/10/25 35/11/35 34/9/34
vt 0.2421050 0.0000000
f 24/12/24 35/11/35 25/10/25
vt 0.3684210 0.0000000
f 24/12/24 36/13/36 35/11/35
vt 0.2315790 0.0000000
f 23/14/23 36/13/36 24/12/24
vt 0.2210530 0.0000000
f 22/15/22 36/13/36 23/14/23
vt 0.3789470 0.0000000
f 22/15/22 37/16/37 36/13/36
vt 0.2105260 0.0000000
f 21/17/21 37/16/37 22/15/22
vt 0.2000000 0.0000000
f 20/18/20 37/16/37 21/17/21
vt 0.3894740 0.0000000
f 20/18/20 38/19/38 37/16/37
vt 0.1894740 0.0000000
f 19/20/19 38/19/38 20/18/20
vt 0.4000000 0.0000000
f 19/20/19 39/21/39 38/19/38
vt 0.1789470 0.0000000
f 18/22/18 39/21/39 19/20/19
vt 0.4105260 0.0000000
f 18/22/18 40/23/40 39/21/39
vt 0.1684210 0.0000000
f 17/24/17 40/23/40 18/22/18
vt 0.4210530 0.0000000
f 17/24/17 41/25/41 40/23/40
vt 0.1578950 0.0000000
f 16/26/16 41/25/41 17/24/17
vt 0.4315790 0.0000000
f 16/26/16 42/27/42 41/25/41
vt 0.1473680 0.0000000
f 15/28/15 42/27/42 16/26/16
vt 0.4421050 0.0000000
f 15/28/15 43/29/43 42/27/42
vt 0.1368420 0.0000000
f 14/30/14 43/29/43 15/28/15
vt 0.4526320 0.0000000
f 14/30/14 44/31/44 43/29/43
vt 0.1263160 0.0000000
f 13/32/13 44/31/44 14/30/14
vt 0.4631580 0.0000000
vt 0.4842110 0.0000000
vt 0.4736840 0.0000000
f 45/33/45 47/34/47 46/35/46
f 13/32/13 45/33/45 44/31/44
f 13/32/13 47/34/47 45/33/45
vt 0.4947370 0.0000000
f 13/32/13 48/36/48 47/34/47
vt 0.5052630 0.0000000
f 13/32/13 49/37/49 48/36/48
vt 0.1157890 0.0000000
f 12/38/12 49/37/49 13/32/13
vt 0.5157890 0.0000000
f 12/38/12 50/39/50 49/37/49
vt 0.1052630 0.0000000
f 11/40/11 50/39/50 12/38/12
vt 0.5263160 0.0000000
f 11/40/11 51/41/51 50/39/50
vt 0.0947370 0.0000000
f 10/42/10 51/41/51 11/40/11
vt 0.5368420 0.0000000
f 10/42/10 52/43/52 51/41/51
vt 0.5684210 0.0000000
f 10/42/10 55/44/55 52/43/52
vt 0.5473680 0.0000000
f 55/44/55 53/45/53 52/43/52
vt 0.5578950 0.0000000
f 55/44/55 54/46/54 53/45/53
vt 0.5789470 0.0000000
f 10/42/10 56/47/56 55/44/55
vt 0.5894740 0.0000000
f 10/42/10 57/48/57 56/47/56
vt 0.6000000 0.0000000
f 10/42/10 58/49/58 57/48/57
vt 0.0842110 0.0000000
f 9/50/9 58/49/58 10/42/10
vt 0.0736840 0.0000000
f 8/51/8 58/49/58 9/50/9
vt 0.6105260 0.0000000
f 8/51/8 59/52/59 58/49/58
vt 0.0631580 0.0000000
f 7/53/7 59/52/59 8/51/8
vt 0.6210530 0.0000000
f 7/53/7 60/54/60 59/52/59
vt 0.0526320 0.0000000
f 6/55/6 60/54/60 7/53/7
vt 0.6315790 0.0000000
f 6/55/6 61/56/61 60/54/60
vt 0.0421050 0.0000000
vt 0.8315790 0.0000000
f 5/57/5 80/58/80 6/55/6
f 80/58/80 61/56/61 6/55/6
vt 0.8421050 0.0000000
f 5/57/5 81/59/81 80/58/80
vt 0.8210530 0.0000000
f 79/60/79 61/56/61 80/58/80
vt 0.6421050 0.0000000
f 79/60/79 62/61/62 61/56/61
vt 0.8105260 0.0000000
f 78/62/78 62/61/62 79/60/79
vt 0.0315790 0.0000000
f 4/63/4 81/59/81 5/57/5
vt 0.8526320 0.0000000
f 4/63/4 82/64/82 81/59/81
vt 0.8000000 0.0000000
f 77/65/77 62/61/62 78/62/78
vt 0.6526320 0.0000000
f 77/65/77 63/66/63 62/61/62
vt 0.0210530 0.0000000
f 3/67/3 82/64/82 4/63/4
vt 0.8631580 0.0000000
f 3/67/3 83/68/83 82/64/82
vt 0.7894740 0.0000000
f 76/69/76 63/66/63 77/65/77
vt 0.6631580 0.0000000
f 76/69/76 64/70/64 63/66/63
vt 0.0105260 0.0000000
f 2/71/2 83/68/83 3/67/3
vt 0.8736840 0.0000000
f 2/71/2 84/72/84 83/68/83
vt 0.7789470 0.0000000
f 75/73/75 64/70/64 76/69/76
vt 0.6736840 0.0000000
f 75/73/75 65/74/65 64/70/64
vt 0.0000000 0.0000000
f 1/75/1 84/72/84 2/71/2
vt 1.0000000 0.0000000
f 1/75/1 96/76/96 84/72/84
vt 0.9894740 0.0000000
f 96/76/96 95/77/95 84/72/84
vt 0.9789470 0.0000000
f 95/77/95 94/78/94 84/72/84
vt 0.9684210 0.0000000
f 94/78/94 93/79/93 84/72/84
vt 0.8842110 0.0000000
f 93/79/93 85/80/85 84/72/84
vt 0.6842110 0.0000000
f 75/73/75 66/81/66 65/74/65
vt 0.7684210 0.0000000
f 74/82/74 66/81/66 75/73/75
vt 0.9578950 0.0000000
f 92/83/92 85/80/85 93/79/93
vt 0.6947370 0.0000000
f 74/82/74 67/84/67 66/81/66
vt 0.8947370 0.0000000
f 92/83/92 86/85/86 85/80/85
vt 0.9473680 0.0000000
f 91/86/91 86/85/86 92/83/92
vt 0.7578950 0.0000000
f 73/87/73 67/84/67 74/82/74
vt 0.7052630 0.0000000
f 73/87/73 68/88/68 67/84/67
vt 0.9368420 0.0000000
f 90/89/90 86/85/86 91/86/91
vt 0.9052630 0.0000000
f 90/89/90 87/90/87 86/85/86
vt 0.7157890 0.0000000
f 73/87/73 69/91/69 68/88/68
vt 0.7473680 0.0000000
f 72/92/72 69/91/69 73/87/73
vt 0.9263160 0.0000000
f 89/93/89 87/90/87 90/89/90
vt 0.7263160 0.0000000
f 72/92/72 70/94/70 69/91/69
vt 0.9157890 0.0000000
f 89/93/89 88/95/88 87/90/87
vt 0.7368420 0.0000000
f 71/96/71 70/94/70 72/92/72
f 125/1/125 127/2/127 126/3/126
f 125/1/125 128/4/128 127/2/127
f 124/5/124 128/4/128 125/1/125
f 124/5/124 129/6/129 128/4/128
f 123/7/123 129/6/129 124/5/124
f 122/8/122 129/6/129 123/7/123
f 122/8/122 130/9/130 129/6/129
f 121/10/121 130/9/130 122/8/122
f 121/10/121 131/11/131 130/9/130
f 120/12/120 131/11/131 121/10/121
f 120/12/120 132/13/132 131/11/131
f 119/14/119 132/13/132 120/12/120
f 118/15/118 132/13/132 119/14/119
f 118/15/118 133/16/133 132/13/132
f 117/17/117 133/16/133 118/15/118
f 116/18/116 133/16/133 117/17/117
f 116/18/116 134/19/134 133/16/133
f 115/20/115 134/19/134 116/18/116
f 115/20/115 135/21/135 134/19/134
f 114/22/114 135/21/135 115/20/115
f 114/22/114 136/23/136 135/21/135
f 113/24/113 136/23/136 114/22/114
f 113/24/113 137/25/137 136/23/136
f 112/26/112 137/25/137 113/24/113
f 112/26/112 138/27/138 137/25/137
f 111/28/111 138/27/138 112/26/112
f 111/28/111 139/29/139 138/27/138
f 110/30/110 139/29/139 111/28/111
f 110/30/110 140/31/140 139/29/139
f 109/32/109 140/31/140 110/30/110
f 141/33/141 143/34/143 142/35/142
f 109/32/109 141/33/141 140/31/140
f 109/32/109 143/34/143 141/33/141
f 109/32/109 144/36/144 143/34/143
f 109/32/109 145/37/145 144/36/144
f 108/38/108 145/37/145 109/32/109
f 108/38/108 146/39/146 145/37/145
f 107/40/107 146/39/146 108/38/108
f 107/40/107 147/41/147 146/39/146
f 106/42/106 147/41/147 107/40/107
f 106/42/106 148/43/148 147/41/147
f 106/42/106 151/44/151 148/43/148
f 151/44/151 149/45/149 148/43/148
f 151/44/151 150/46/150 149/45/149
f 106/42/106 152/47/152 151/44/151
f 106/42/106 153/48/153 152/47/152
f 106/42/106 154/49/154 153/48/153
f 105/50/105 154/49/154 106/42/106
f 104/51/104 154/49/154 105/50/105
f 104/51/104 155/52/155 154/49/154
f 103/53/103 155/52/155 104/51/104
f 103/53/103 156/54/156 155/52/155
f 102/55/102 156/54/156 103/53/103
f 102/55/102 157/56/157 156/54/156
f 101/57/101 176/58/176 102/55/102
f 176/58/176 157/56/157 102/55/102
f 101/57/101 177/59/177 176/58/176
f 175/60/175 157/56/157 176/58/176
f 175/60/175 158/61/158 157/56/157
f 174/62/174 158/61/158 175/60/175
f 100/63/100 177/59/177 101/57/101
f 100/63/100 178/64/178 177/59/177
f 173/65/173 158/61/158 174/62/174
f 173/65/173 159/66/159 158/61/158
f 99/67/99 178/64/178 100/63/100
f 99/67/99 179/68/179 178/64/178
f 172/69/172 159/66/159 173/65/173
f 172/69/172 160/70/160 159/66/159
f 98/71/98 179/68/179 99/67/99
f 98/71/98 180/72/180 179/68/179
f 171/73/171 160/70/160 172/69/172
f 171/73/171 161/74/161 160/70/160
f 97/75/97 180/72/180 98/71/98
f 97/75/97 192/76/192 180/72/180
f 192/76/192 191/77/191 180/72/180
f 191/77/191 190/78/190 180/72/180
f 190/78/190 189/79/189 180/72/180
f 189/79/189 181/80/181 180/72/180
f 171/73/171 162/81/162 161/74/161
f 170/82/170 162/81/162 171/73/171
f 188/83/188 181/80/181 189/79/189
f 170/82/170 163/84/163 162/81/162
f 188/83/188 182/85/182 181/80/181
f 187/86/187 182/85/182 188/83/188
f 169/87/169 163/84/163 170/82/170
f 169/87/169 164/88/164 163/84/163
f 186/89/186 182/85/182 187/86/187
f 186/89/186 183/90/183 182/85/182
f 169/87/169 165/91/165 164/88/164
f 168/92/168 165/91/165 169/87/169
f 185/93/185 183/90/183 186/89/186
f 168/92/168 166/94/166 165/91/165
f 185/93/185 184/95/184 183/90/183
f 167/96/167 166/94/166 168/92/168
# 188 faces, 96 coords texture

# End of File
