# Blender 4.2.3 LTS
# www.blender.org
mtllib player_1.mtl
o path1
v 0.000542 -0.001403 0.000000
v 0.000462 -0.002200 0.000000
v 0.000261 -0.002993 0.000000
v 0.000440 -0.003757 0.000000
v 0.000694 -0.004530 0.000000
v 0.000940 -0.005309 0.000000
v 0.000804 -0.006091 0.000000
v 0.000788 -0.006936 0.000000
v 0.000805 -0.007782 0.000000
v 0.000624 -0.008604 0.000000
v 0.000376 -0.009359 0.000000
v 0.000132 -0.010116 0.000000
v 0.000000 -0.010893 0.000000
v 0.000260 -0.011714 0.000000
v 0.000675 -0.012478 0.000000
v 0.001188 -0.013170 0.000000
v 0.001711 -0.013762 0.000000
v 0.002069 -0.014456 0.000000
v 0.002110 -0.015237 0.000000
v 0.002218 -0.015994 0.000000
v 0.002603 -0.016647 0.000000
v 0.003282 -0.016962 0.000000
v 0.004140 -0.017060 0.000000
v 0.004981 -0.016888 0.000000
v 0.005596 -0.016310 0.000000
v 0.005844 -0.015256 0.000000
v 0.005825 -0.014157 0.000000
v 0.005996 -0.013092 0.000000
v 0.006504 -0.012356 0.000000
v 0.006875 -0.011549 0.000000
v 0.006882 -0.010667 0.000000
v 0.006829 -0.009872 0.000000
v 0.007140 -0.009191 0.000000
v 0.007886 -0.009084 0.000000
v 0.008530 -0.009081 0.000000
v 0.009125 -0.008868 0.000000
v 0.009457 -0.008342 0.000000
v 0.009096 -0.007543 0.000000
v 0.008291 -0.007121 0.000000
v 0.007389 -0.006986 0.000000
v 0.006738 -0.006985 0.000000
v 0.006086 -0.006953 0.000000
v 0.005486 -0.006724 0.000000
v 0.005801 -0.005808 0.000000
v 0.006101 -0.004887 0.000000
v 0.006392 -0.003963 0.000000
v 0.006606 -0.003226 0.000000
v 0.006486 -0.002436 0.000000
v 0.006657 -0.001717 0.000000
v 0.007135 -0.001178 0.000000
v 0.007268 -0.000540 0.000000
v 0.006719 -0.000146 0.000000
v 0.006068 -0.000041 0.000000
v 0.005396 -0.000088 0.000000
v 0.004863 -0.000383 0.000000
v 0.004737 -0.001245 0.000000
v 0.004567 -0.002095 0.000000
v 0.004291 -0.002920 0.000000
v 0.004093 -0.003597 0.000000
v 0.003614 -0.004041 0.000000
v 0.003132 -0.003678 0.000000
v 0.002673 -0.002884 0.000000
v 0.002284 -0.002054 0.000000
v 0.002360 -0.001171 0.000000
v 0.002434 -0.000377 0.000000
v 0.001744 -0.000019 0.000000
v 0.000895 -0.000123 0.000000
v 0.000527 -0.000446 0.000000
v 0.000524 -0.000911 0.000000
v 0.000542 -0.001403 0.000000
v 0.000542 -0.001403 0.000000
v 0.000542 -0.001403 0.000000
vn -0.0000 -0.0000 -1.0000
vt 0.295775 0.000000
vt 0.323944 0.000000
vt 0.309859 0.000000
vt 0.281690 0.000000
vt 0.338028 0.000000
vt 0.267606 0.000000
vt 0.352113 0.000000
vt 0.253521 0.000000
vt 0.366197 0.000000
vt 0.239437 0.000000
vt 0.225352 0.000000
vt 0.380282 0.000000
vt 0.211268 0.000000
vt 0.197183 0.000000
vt 0.394366 0.000000
vt 0.183099 0.000000
vt 0.408451 0.000000
vt 0.169014 0.000000
vt 0.422535 0.000000
vt 0.154930 0.000000
vt 0.436620 0.000000
vt 0.140845 0.000000
vt 0.450704 0.000000
vt 0.126761 0.000000
vt 0.464789 0.000000
vt 0.478873 0.000000
vt 0.492958 0.000000
vt 0.507042 0.000000
vt 0.112676 0.000000
vt 0.521127 0.000000
vt 0.098592 0.000000
vt 0.535211 0.000000
vt 0.563380 0.000000
vt 0.549296 0.000000
vt 0.577465 0.000000
vt 0.591549 0.000000
vt 0.084507 0.000000
vt 0.605634 0.000000
vt 0.070423 0.000000
vt 0.619718 0.000000
vt 0.056338 0.000000
vt 0.633803 0.000000
vt 0.042254 0.000000
vt 0.830986 0.000000
vt 0.845070 0.000000
vt 0.816901 0.000000
vt 0.647887 0.000000
vt 0.028169 0.000000
vt 0.859155 0.000000
vt 0.802817 0.000000
vt 0.661972 0.000000
vt 0.014085 0.000000
vt 0.788732 0.000000
vt 0.873239 0.000000
vt 0.676056 0.000000
vt 0.000000 0.000000
vt 0.774648 0.000000
vt 1.000000 0.000000
vt 0.985915 0.000000
vt 0.971831 0.000000
vt 0.887324 0.000000
vt 0.690141 0.000000
vt 0.957747 0.000000
vt 0.760563 0.000000
vt 0.704225 0.000000
vt 0.901408 0.000000
vt 0.943662 0.000000
vt 0.718310 0.000000
vt 0.929577 0.000000
vt 0.746479 0.000000
vt 0.915493 0.000000
vt 0.732394 0.000000
s 0
usemtl SVGMat.001
f 22/1/1 24/2/1 23/3/1
f 21/4/1 24/2/1 22/1/1
f 21/4/1 25/5/1 24/2/1
f 20/6/1 25/5/1 21/4/1
f 20/6/1 26/7/1 25/5/1
f 19/8/1 26/7/1 20/6/1
f 19/8/1 27/9/1 26/7/1
f 18/10/1 27/9/1 19/8/1
f 17/11/1 27/9/1 18/10/1
f 17/11/1 28/12/1 27/9/1
f 16/13/1 28/12/1 17/11/1
f 15/14/1 28/12/1 16/13/1
f 15/14/1 29/15/1 28/12/1
f 14/16/1 29/15/1 15/14/1
f 14/16/1 30/17/1 29/15/1
f 13/18/1 30/17/1 14/16/1
f 13/18/1 31/19/1 30/17/1
f 12/20/1 31/19/1 13/18/1
f 12/20/1 32/21/1 31/19/1
f 11/22/1 32/21/1 12/20/1
f 11/22/1 33/23/1 32/21/1
f 10/24/1 33/23/1 11/22/1
f 10/24/1 34/25/1 33/23/1
f 10/24/1 35/26/1 34/25/1
f 10/24/1 36/27/1 35/26/1
f 10/24/1 37/28/1 36/27/1
f 9/29/1 37/28/1 10/24/1
f 9/29/1 38/30/1 37/28/1
f 8/31/1 38/30/1 9/29/1
f 8/31/1 39/32/1 38/30/1
f 8/31/1 41/33/1 39/32/1
f 41/33/1 40/34/1 39/32/1
f 8/31/1 42/35/1 41/33/1
f 8/31/1 43/36/1 42/35/1
f 7/37/1 43/36/1 8/31/1
f 7/37/1 44/38/1 43/36/1
f 6/39/1 44/38/1 7/37/1
f 6/39/1 45/40/1 44/38/1
f 5/41/1 45/40/1 6/39/1
f 5/41/1 46/42/1 45/40/1
f 4/43/1 60/44/1 5/41/1
f 60/44/1 46/42/1 5/41/1
f 4/43/1 61/45/1 60/44/1
f 59/46/1 46/42/1 60/44/1
f 59/46/1 47/47/1 46/42/1
f 3/48/1 61/45/1 4/43/1
f 3/48/1 62/49/1 61/45/1
f 58/50/1 47/47/1 59/46/1
f 58/50/1 48/51/1 47/47/1
f 2/52/1 62/49/1 3/48/1
f 57/53/1 48/51/1 58/50/1
f 2/52/1 63/54/1 62/49/1
f 57/53/1 49/55/1 48/51/1
f 1/56/1 63/54/1 2/52/1
f 56/57/1 49/55/1 57/53/1
f 1/56/1 72/58/1 63/54/1
f 72/58/1 71/59/1 63/54/1
f 71/59/1 70/60/1 63/54/1
f 70/60/1 64/61/1 63/54/1
f 56/57/1 50/62/1 49/55/1
f 69/63/1 64/61/1 70/60/1
f 55/64/1 50/62/1 56/57/1
f 55/64/1 51/65/1 50/62/1
f 69/63/1 65/66/1 64/61/1
f 68/67/1 65/66/1 69/63/1
f 55/64/1 52/68/1 51/65/1
f 67/69/1 65/66/1 68/67/1
f 54/70/1 52/68/1 55/64/1
f 67/69/1 66/71/1 65/66/1
f 54/70/1 53/72/1 52/68/1
o path1
v 0.000542 -0.001403 0.000000
v 0.000462 -0.002200 0.000000
v 0.000261 -0.002993 0.000000
v 0.000440 -0.003757 0.000000
v 0.000694 -0.004530 0.000000
v 0.000940 -0.005309 0.000000
v 0.000804 -0.006091 0.000000
v 0.000788 -0.006936 0.000000
v 0.000805 -0.007782 0.000000
v 0.000624 -0.008604 0.000000
v 0.000376 -0.009359 0.000000
v 0.000132 -0.010116 0.000000
v 0.000000 -0.010893 0.000000
v 0.000260 -0.011714 0.000000
v 0.000675 -0.012478 0.000000
v 0.001188 -0.013170 0.000000
v 0.001711 -0.013762 0.000000
v 0.002069 -0.014456 0.000000
v 0.002110 -0.015237 0.000000
v 0.002218 -0.015994 0.000000
v 0.002603 -0.016647 0.000000
v 0.003282 -0.016962 0.000000
v 0.004140 -0.017060 0.000000
v 0.004981 -0.016888 0.000000
v 0.005596 -0.016310 0.000000
v 0.005844 -0.015256 0.000000
v 0.005825 -0.014157 0.000000
v 0.005996 -0.013092 0.000000
v 0.006504 -0.012356 0.000000
v 0.006875 -0.011549 0.000000
v 0.006882 -0.010667 0.000000
v 0.006829 -0.009872 0.000000
v 0.007140 -0.009191 0.000000
v 0.007886 -0.009084 0.000000
v 0.008530 -0.009081 0.000000
v 0.009125 -0.008868 0.000000
v 0.009457 -0.008342 0.000000
v 0.009096 -0.007543 0.000000
v 0.008291 -0.007121 0.000000
v 0.007389 -0.006986 0.000000
v 0.006738 -0.006985 0.000000
v 0.006086 -0.006953 0.000000
v 0.005486 -0.006724 0.000000
v 0.005801 -0.005808 0.000000
v 0.006101 -0.004887 0.000000
v 0.006392 -0.003963 0.000000
v 0.006606 -0.003226 0.000000
v 0.006486 -0.002436 0.000000
v 0.006657 -0.001717 0.000000
v 0.007135 -0.001178 0.000000
v 0.007268 -0.000540 0.000000
v 0.006719 -0.000146 0.000000
v 0.006068 -0.000041 0.000000
v 0.005396 -0.000088 0.000000
v 0.004863 -0.000383 0.000000
v 0.004737 -0.001245 0.000000
v 0.004567 -0.002095 0.000000
v 0.004291 -0.002920 0.000000
v 0.004093 -0.003597 0.000000
v 0.003614 -0.004041 0.000000
v 0.003132 -0.003678 0.000000
v 0.002673 -0.002884 0.000000
v 0.002284 -0.002054 0.000000
v 0.002360 -0.001171 0.000000
v 0.002434 -0.000377 0.000000
v 0.001744 -0.000019 0.000000
v 0.000895 -0.000123 0.000000
v 0.000527 -0.000446 0.000000
v 0.000524 -0.000911 0.000000
v 0.000542 -0.001403 0.000000
v 0.000542 -0.001403 0.000000
v 0.000542 -0.001403 0.000000
vn -0.0000 -0.0000 -1.0000
vt 0.295775 0.000000
vt 0.323944 0.000000
vt 0.309859 0.000000
vt 0.281690 0.000000
vt 0.338028 0.000000
vt 0.267606 0.000000
vt 0.352113 0.000000
vt 0.253521 0.000000
vt 0.366197 0.000000
vt 0.239437 0.000000
vt 0.225352 0.000000
vt 0.380282 0.000000
vt 0.211268 0.000000
vt 0.197183 0.000000
vt 0.394366 0.000000
vt 0.183099 0.000000
vt 0.408451 0.000000
vt 0.169014 0.000000
vt 0.422535 0.000000
vt 0.154930 0.000000
vt 0.436620 0.000000
vt 0.140845 0.000000
vt 0.450704 0.000000
vt 0.126761 0.000000
vt 0.464789 0.000000
vt 0.478873 0.000000
vt 0.492958 0.000000
vt 0.507042 0.000000
vt 0.112676 0.000000
vt 0.521127 0.000000
vt 0.098592 0.000000
vt 0.535211 0.000000
vt 0.563380 0.000000
vt 0.549296 0.000000
vt 0.577465 0.000000
vt 0.591549 0.000000
vt 0.084507 0.000000
vt 0.605634 0.000000
vt 0.070423 0.000000
vt 0.619718 0.000000
vt 0.056338 0.000000
vt 0.633803 0.000000
vt 0.042254 0.000000
vt 0.830986 0.000000
vt 0.845070 0.000000
vt 0.816901 0.000000
vt 0.647887 0.000000
vt 0.028169 0.000000
vt 0.859155 0.000000
vt 0.802817 0.000000
vt 0.661972 0.000000
vt 0.014085 0.000000
vt 0.788732 0.000000
vt 0.873239 0.000000
vt 0.676056 0.000000
vt 0.000000 0.000000
vt 0.774648 0.000000
vt 1.000000 0.000000
vt 0.985915 0.000000
vt 0.971831 0.000000
vt 0.887324 0.000000
vt 0.690141 0.000000
vt 0.957747 0.000000
vt 0.760563 0.000000
vt 0.704225 0.000000
vt 0.901408 0.000000
vt 0.943662 0.000000
vt 0.718310 0.000000
vt 0.929577 0.000000
vt 0.746479 0.000000
vt 0.915493 0.000000
vt 0.732394 0.000000
s 0
usemtl SVGMat.001
f 94/73/2 96/74/2 95/75/2
f 93/76/2 96/74/2 94/73/2
f 93/76/2 97/77/2 96/74/2
f 92/78/2 97/77/2 93/76/2
f 92/78/2 98/79/2 97/77/2
f 91/80/2 98/79/2 92/78/2
f 91/80/2 99/81/2 98/79/2
f 90/82/2 99/81/2 91/80/2
f 89/83/2 99/81/2 90/82/2
f 89/83/2 100/84/2 99/81/2
f 88/85/2 100/84/2 89/83/2
f 87/86/2 100/84/2 88/85/2
f 87/86/2 101/87/2 100/84/2
f 86/88/2 101/87/2 87/86/2
f 86/88/2 102/89/2 101/87/2
f 85/90/2 102/89/2 86/88/2
f 85/90/2 103/91/2 102/89/2
f 84/92/2 103/91/2 85/90/2
f 84/92/2 104/93/2 103/91/2
f 83/94/2 104/93/2 84/92/2
f 83/94/2 105/95/2 104/93/2
f 82/96/2 105/95/2 83/94/2
f 82/96/2 106/97/2 105/95/2
f 82/96/2 107/98/2 106/97/2
f 82/96/2 108/99/2 107/98/2
f 82/96/2 109/100/2 108/99/2
f 81/101/2 109/100/2 82/96/2
f 81/101/2 110/102/2 109/100/2
f 80/103/2 110/102/2 81/101/2
f 80/103/2 111/104/2 110/102/2
f 80/103/2 113/105/2 111/104/2
f 113/105/2 112/106/2 111/104/2
f 80/103/2 114/107/2 113/105/2
f 80/103/2 115/108/2 114/107/2
f 79/109/2 115/108/2 80/103/2
f 79/109/2 116/110/2 115/108/2
f 78/111/2 116/110/2 79/109/2
f 78/111/2 117/112/2 116/110/2
f 77/113/2 117/112/2 78/111/2
f 77/113/2 118/114/2 117/112/2
f 76/115/2 132/116/2 77/113/2
f 132/116/2 118/114/2 77/113/2
f 76/115/2 133/117/2 132/116/2
f 131/118/2 118/114/2 132/116/2
f 131/118/2 119/119/2 118/114/2
f 75/120/2 133/117/2 76/115/2
f 75/120/2 134/121/2 133/117/2
f 130/122/2 119/119/2 131/118/2
f 130/122/2 120/123/2 119/119/2
f 74/124/2 134/121/2 75/120/2
f 129/125/2 120/123/2 130/122/2
f 74/124/2 135/126/2 134/121/2
f 129/125/2 121/127/2 120/123/2
f 73/128/2 135/126/2 74/124/2
f 128/129/2 121/127/2 129/125/2
f 73/128/2 144/130/2 135/126/2
f 144/130/2 143/131/2 135/126/2
f 143/131/2 142/132/2 135/126/2
f 142/132/2 136/133/2 135/126/2
f 128/129/2 122/134/2 121/127/2
f 141/135/2 136/133/2 142/132/2
f 127/136/2 122/134/2 128/129/2
f 127/136/2 123/137/2 122/134/2
f 141/135/2 137/138/2 136/133/2
f 140/139/2 137/138/2 141/135/2
f 127/136/2 124/140/2 123/137/2
f 139/141/2 137/138/2 140/139/2
f 126/142/2 124/140/2 127/136/2
f 139/141/2 138/143/2 137/138/2
f 126/142/2 125/144/2 124/140/2
