# Blender 4.3.0
# www.blender.org
mtllib tank.mtl
o path1
v 0.004763 -0.001605 0.000000
v 0.005026 -0.003702 0.000000
v 0.004725 -0.005026 0.000000
v 0.003950 -0.004128 0.000000
v 0.002655 -0.002914 0.000000
v 0.001420 -0.002077 0.000000
v 0.001271 -0.001043 0.000000
v 0.001074 -0.000529 0.000000
v 0.000299 -0.000987 0.000000
v 0.001477 -0.003078 0.000000
v 0.002910 -0.004711 0.000000
v 0.002910 -0.008663 0.000000
v 0.003394 -0.013053 0.000000
v 0.004453 -0.013491 0.000000
v 0.005027 -0.014137 0.000000
v 0.004763 -0.014946 0.000000
v 0.004815 -0.016613 0.000000
v 0.006835 -0.016587 0.000000
v 0.006526 -0.013708 0.000000
v 0.006649 -0.013125 0.000000
v 0.007319 -0.010969 0.000000
v 0.007544 -0.007263 0.000000
v 0.007355 -0.005092 0.000000
v 0.006944 -0.006178 0.000000
v 0.006627 -0.008301 0.000000
v 0.006316 -0.010003 0.000000
v 0.006024 -0.009292 0.000000
v 0.006034 -0.007044 0.000000
v 0.006117 -0.003062 0.000000
v 0.005438 -0.001679 0.000000
v 0.005865 -0.000423 0.000000
v 0.006468 -0.000000 0.000000
v 0.005616 -0.000000 0.000000
v 0.004763 -0.000000 0.000000
vn -0.0000 -0.0000 -1.0000
vt 0.454545 0.000000
vt 0.515152 0.000000
vt 0.484848 0.000000
vt 0.545455 0.000000
vt 0.424242 0.000000
vt 0.393939 0.000000
vt 0.575758 0.000000
vt 0.363636 0.000000
vt 0.606061 0.000000
vt 0.333333 0.000000
vt 0.757576 0.000000
vt 0.636364 0.000000
vt 0.787879 0.000000
vt 0.727273 0.000000
vt 0.818182 0.000000
vt 0.303030 0.000000
vt 0.696970 0.000000
vt 0.666667 0.000000
vt 0.060606 0.000000
vt 0.848485 0.000000
vt 0.090909 0.000000
vt 0.030303 0.000000
vt 0.272727 0.000000
vt 0.121212 0.000000
vt 0.000000 0.000000
vt 0.242424 0.000000
vt 0.151515 0.000000
vt 0.878788 0.000000
vt 0.181818 0.000000
vt 0.909091 0.000000
vt 1.000000 0.000000
vt 0.212121 0.000000
vt 0.939394 0.000000
vt 0.969697 0.000000
s 0
usemtl SVGMat.001
f 16/1/1 18/2/1 17/3/1
f 16/1/1 19/4/1 18/2/1
f 15/5/1 19/4/1 16/1/1
f 14/6/1 19/4/1 15/5/1
f 14/6/1 20/7/1 19/4/1
f 13/8/1 20/7/1 14/6/1
f 13/8/1 21/9/1 20/7/1
f 12/10/1 21/9/1 13/8/1
f 12/10/1 26/11/1 21/9/1
f 26/11/1 22/12/1 21/9/1
f 12/10/1 27/13/1 26/11/1
f 25/14/1 22/12/1 26/11/1
f 12/10/1 28/15/1 27/13/1
f 11/16/1 28/15/1 12/10/1
f 24/17/1 22/12/1 25/14/1
f 24/17/1 23/18/1 22/12/1
f 11/16/1 3/19/1 28/15/1
f 3/19/1 29/20/1 28/15/1
f 11/16/1 4/21/1 3/19/1
f 2/22/1 29/20/1 3/19/1
f 10/23/1 4/21/1 11/16/1
f 10/23/1 5/24/1 4/21/1
f 1/25/1 29/20/1 2/22/1
f 9/26/1 6/27/1 10/23/1
f 6/27/1 5/24/1 10/23/1
f 1/25/1 30/28/1 29/20/1
f 9/26/1 7/29/1 6/27/1
f 1/25/1 31/30/1 30/28/1
f 34/31/1 31/30/1 1/25/1
f 9/26/1 8/32/1 7/29/1
f 34/31/1 32/33/1 31/30/1
f 33/34/1 32/33/1 34/31/1
o path1
v 0.004763 -0.001605 0.000000
v 0.005026 -0.003702 0.000000
v 0.004725 -0.005026 0.000000
v 0.003950 -0.004128 0.000000
v 0.002655 -0.002914 0.000000
v 0.001420 -0.002077 0.000000
v 0.001271 -0.001043 0.000000
v 0.001074 -0.000529 0.000000
v 0.000299 -0.000987 0.000000
v 0.001477 -0.003078 0.000000
v 0.002910 -0.004711 0.000000
v 0.002910 -0.008663 0.000000
v 0.003394 -0.013053 0.000000
v 0.004453 -0.013491 0.000000
v 0.005027 -0.014137 0.000000
v 0.004763 -0.014946 0.000000
v 0.004815 -0.016613 0.000000
v 0.006835 -0.016587 0.000000
v 0.006526 -0.013708 0.000000
v 0.006649 -0.013125 0.000000
v 0.007319 -0.010969 0.000000
v 0.007544 -0.007263 0.000000
v 0.007355 -0.005092 0.000000
v 0.006944 -0.006178 0.000000
v 0.006627 -0.008301 0.000000
v 0.006316 -0.010003 0.000000
v 0.006024 -0.009292 0.000000
v 0.006034 -0.007044 0.000000
v 0.006117 -0.003062 0.000000
v 0.005438 -0.001679 0.000000
v 0.005865 -0.000423 0.000000
v 0.006468 -0.000000 0.000000
v 0.005616 -0.000000 0.000000
v 0.004763 -0.000000 0.000000
vn -0.0000 -0.0000 -1.0000
vt 0.454545 0.000000
vt 0.515152 0.000000
vt 0.484848 0.000000
vt 0.545455 0.000000
vt 0.424242 0.000000
vt 0.393939 0.000000
vt 0.575758 0.000000
vt 0.363636 0.000000
vt 0.606061 0.000000
vt 0.333333 0.000000
vt 0.757576 0.000000
vt 0.636364 0.000000
vt 0.787879 0.000000
vt 0.727273 0.000000
vt 0.818182 0.000000
vt 0.303030 0.000000
vt 0.696970 0.000000
vt 0.666667 0.000000
vt 0.060606 0.000000
vt 0.848485 0.000000
vt 0.090909 0.000000
vt 0.030303 0.000000
vt 0.272727 0.000000
vt 0.121212 0.000000
vt 0.000000 0.000000
vt 0.242424 0.000000
vt 0.151515 0.000000
vt 0.878788 0.000000
vt 0.181818 0.000000
vt 0.909091 0.000000
vt 1.000000 0.000000
vt 0.212121 0.000000
vt 0.939394 0.000000
vt 0.969697 0.000000
s 0
usemtl SVGMat.001
f 50/35/2 52/36/2 51/37/2
f 50/35/2 53/38/2 52/36/2
f 49/39/2 53/38/2 50/35/2
f 48/40/2 53/38/2 49/39/2
f 48/40/2 54/41/2 53/38/2
f 47/42/2 54/41/2 48/40/2
f 47/42/2 55/43/2 54/41/2
f 46/44/2 55/43/2 47/42/2
f 46/44/2 60/45/2 55/43/2
f 60/45/2 56/46/2 55/43/2
f 46/44/2 61/47/2 60/45/2
f 59/48/2 56/46/2 60/45/2
f 46/44/2 62/49/2 61/47/2
f 45/50/2 62/49/2 46/44/2
f 58/51/2 56/46/2 59/48/2
f 58/51/2 57/52/2 56/46/2
f 45/50/2 37/53/2 62/49/2
f 37/53/2 63/54/2 62/49/2
f 45/50/2 38/55/2 37/53/2
f 36/56/2 63/54/2 37/53/2
f 44/57/2 38/55/2 45/50/2
f 44/57/2 39/58/2 38/55/2
f 35/59/2 63/54/2 36/56/2
f 43/60/2 40/61/2 44/57/2
f 40/61/2 39/58/2 44/57/2
f 35/59/2 64/62/2 63/54/2
f 43/60/2 41/63/2 40/61/2
f 35/59/2 65/64/2 64/62/2
f 68/65/2 65/64/2 35/59/2
f 43/60/2 42/66/2 41/63/2
f 68/65/2 66/67/2 65/64/2
f 67/68/2 66/67/2 68/65/2
