# Blender 4.2.3 LTS
# www.blender.org
mtllib woman_walk_1.mtl
o path1
v 0.002127 -0.000685 0.000000
v 0.002047 -0.001101 0.000000
v 0.001835 -0.001524 0.000000
v 0.001532 -0.001871 0.000000
v 0.001378 -0.002001 0.000000
v 0.001091 -0.002242 0.000000
v 0.000937 -0.002372 0.000000
v 0.002202 -0.003589 0.000000
v 0.003466 -0.004806 0.000000
v 0.002665 -0.005719 0.000000
v 0.001997 -0.006932 0.000000
v 0.001857 -0.008279 0.000000
v 0.002277 -0.009467 0.000000
v 0.002478 -0.009856 0.000000
v 0.002555 -0.010258 0.000000
v 0.002504 -0.010647 0.000000
v 0.002322 -0.010817 0.000000
v 0.002016 -0.010275 0.000000
v 0.001494 -0.008860 0.000000
v 0.000991 -0.007539 0.000000
v 0.000569 -0.006716 0.000000
v 0.000234 -0.006402 0.000000
v 0.000008 -0.006502 0.000000
v 0.000103 -0.007119 0.000000
v 0.000562 -0.008517 0.000000
v 0.000947 -0.009752 0.000000
v 0.001223 -0.010879 0.000000
v 0.001330 -0.011653 0.000000
v 0.001375 -0.012169 0.000000
v 0.001491 -0.012621 0.000000
v 0.001651 -0.012910 0.000000
v 0.001803 -0.013229 0.000000
v 0.001891 -0.013761 0.000000
v 0.001897 -0.014399 0.000000
v 0.002266 -0.016019 0.000000
v 0.003294 -0.016641 0.000000
v 0.004489 -0.015969 0.000000
v 0.004928 -0.015105 0.000000
v 0.005013 -0.014218 0.000000
v 0.004720 -0.013544 0.000000
v 0.004592 -0.013352 0.000000
v 0.004723 -0.013254 0.000000
v 0.005143 -0.013227 0.000000
v 0.006595 -0.013446 0.000000
v 0.008146 -0.013962 0.000000
v 0.009147 -0.014559 0.000000
v 0.009422 -0.014820 0.000000
v 0.009691 -0.015007 0.000000
v 0.009894 -0.015078 0.000000
v 0.010002 -0.015039 0.000000
v 0.009988 -0.014930 0.000000
v 0.009853 -0.014761 0.000000
v 0.009579 -0.014262 0.000000
v 0.009584 -0.013739 0.000000
v 0.009867 -0.013410 0.000000
v 0.009924 -0.013345 0.000000
v 0.009758 -0.013294 0.000000
v 0.009404 -0.013269 0.000000
v 0.008755 -0.013192 0.000000
v 0.007818 -0.013007 0.000000
v 0.006795 -0.012753 0.000000
v 0.006324 -0.012624 0.000000
v 0.005450 -0.012383 0.000000
v 0.004980 -0.012254 0.000000
v 0.004987 -0.008127 0.000000
v 0.004967 -0.005210 0.000000
v 0.004796 -0.004025 0.000000
v 0.004330 -0.003565 0.000000
v 0.003922 -0.003179 0.000000
v 0.003490 -0.002587 0.000000
v 0.003129 -0.001916 0.000000
v 0.002781 -0.001066 0.000000
v 0.002766 -0.000647 0.000000
v 0.003072 -0.000351 0.000000
v 0.003354 -0.000116 0.000000
v 0.003290 -0.000019 0.000000
v 0.002840 0.000000 0.000000
v 0.002393 -0.000052 0.000000
v 0.002181 -0.000255 0.000000
v 0.002128 -0.000685 0.000000
v 0.002128 -0.000685 0.000000
v 0.002127 -0.000685 0.000000
v 0.002457 -0.002515 0.000000
v 0.002507 -0.002902 0.000000
v 0.002437 -0.003012 0.000000
v 0.002223 -0.002880 0.000000
v 0.001931 -0.002465 0.000000
v 0.001879 -0.002044 0.000000
v 0.002097 -0.001852 0.000000
v 0.002232 -0.001943 0.000000
v 0.002361 -0.002181 0.000000
vn -0.0000 -0.0000 -1.0000
vt 0.377778 0.000000
vt 0.400000 0.000000
vt 0.388889 0.000000
vt 0.366667 0.000000
vt 0.411111 0.000000
vt 0.422222 0.000000
vt 0.522222 0.000000
vt 0.544444 0.000000
vt 0.533333 0.000000
vt 0.555556 0.000000
vt 0.511111 0.000000
vt 0.566667 0.000000
vt 0.500000 0.000000
vt 0.577778 0.000000
vt 0.488889 0.000000
vt 0.355556 0.000000
vt 0.588889 0.000000
vt 0.433333 0.000000
vt 0.477778 0.000000
vt 0.344444 0.000000
vt 0.600000 0.000000
vt 0.444444 0.000000
vt 0.466667 0.000000
vt 0.611111 0.000000
vt 0.455556 0.000000
vt 0.622222 0.000000
vt 0.633333 0.000000
vt 0.644444 0.000000
vt 0.333333 0.000000
vt 0.655556 0.000000
vt 0.666667 0.000000
vt 0.322222 0.000000
vt 0.677778 0.000000
vt 0.688889 0.000000
vt 0.311111 0.000000
vt 0.700000 0.000000
vt 0.711111 0.000000
vt 0.300000 0.000000
vt 0.177778 0.000000
vt 0.166667 0.000000
vt 0.288889 0.000000
vt 0.277778 0.000000
vt 0.188889 0.000000
vt 0.155556 0.000000
vt 0.200000 0.000000
vt 0.144444 0.000000
vt 0.133333 0.000000
vt 0.266667 0.000000
vt 0.122222 0.000000
vt 0.211111 0.000000
vt 0.255556 0.000000
vt 0.111111 0.000000
vt 0.722222 0.000000
vt 0.222222 0.000000
vt 0.244444 0.000000
vt 0.100000 0.000000
vt 0.233333 0.000000
vt 0.088889 0.000000
vt 0.733333 0.000000
vt 0.077778 0.000000
vt 0.744444 0.000000
vt 0.066667 0.000000
vt 0.933333 0.000000
vt 0.755556 0.000000
vt 0.766667 0.000000
vt 0.944444 0.000000
vt 0.922222 0.000000
vt 0.911111 0.000000
vt 0.955556 0.000000
vt 0.777778 0.000000
vt 1.000000 0.000000
vt 0.966667 0.000000
vt 0.055556 0.000000
vt 0.044444 0.000000
vt 0.988889 0.000000
vt 0.977778 0.000000
vt 0.033333 0.000000
vt 0.788889 0.000000
vt 0.022222 0.000000
vt 0.011111 0.000000
vt 0.000000 0.000000
vt 0.900000 0.000000
vt 0.888889 0.000000
vt 0.877778 0.000000
vt 0.800000 0.000000
vt 0.866667 0.000000
vt 0.811111 0.000000
vt 0.822222 0.000000
vt 0.855556 0.000000
vt 0.833333 0.000000
vt 0.844444 0.000000
s 0
usemtl SVGMat.007
f 35/1/1 37/2/1 36/3/1
f 34/4/1 37/2/1 35/1/1
f 34/4/1 38/5/1 37/2/1
f 34/4/1 39/6/1 38/5/1
f 48/7/1 50/8/1 49/9/1
f 48/7/1 51/10/1 50/8/1
f 47/11/1 51/10/1 48/7/1
f 47/11/1 52/12/1 51/10/1
f 46/13/1 52/12/1 47/11/1
f 46/13/1 53/14/1 52/12/1
f 45/15/1 53/14/1 46/13/1
f 33/16/1 39/6/1 34/4/1
f 45/15/1 54/17/1 53/14/1
f 33/16/1 40/18/1 39/6/1
f 44/19/1 54/17/1 45/15/1
f 32/20/1 40/18/1 33/16/1
f 44/19/1 55/21/1 54/17/1
f 32/20/1 41/22/1 40/18/1
f 43/23/1 55/21/1 44/19/1
f 43/23/1 56/24/1 55/21/1
f 32/20/1 42/25/1 41/22/1
f 43/23/1 57/26/1 56/24/1
f 43/23/1 58/27/1 57/26/1
f 43/23/1 59/28/1 58/27/1
f 32/20/1 43/23/1 42/25/1
f 31/29/1 43/23/1 32/20/1
f 31/29/1 59/28/1 43/23/1
f 31/29/1 60/30/1 59/28/1
f 31/29/1 61/31/1 60/30/1
f 30/32/1 61/31/1 31/29/1
f 30/32/1 62/33/1 61/31/1
f 30/32/1 63/34/1 62/33/1
f 29/35/1 63/34/1 30/32/1
f 29/35/1 64/36/1 63/34/1
f 29/35/1 65/37/1 64/36/1
f 28/38/1 17/39/1 29/35/1
f 17/39/1 16/40/1 29/35/1
f 16/40/1 65/37/1 29/35/1
f 27/41/1 17/39/1 28/38/1
f 26/42/1 17/39/1 27/41/1
f 26/42/1 18/43/1 17/39/1
f 15/44/1 65/37/1 16/40/1
f 26/42/1 19/45/1 18/43/1
f 14/46/1 65/37/1 15/44/1
f 13/47/1 65/37/1 14/46/1
f 25/48/1 19/45/1 26/42/1
f 12/49/1 65/37/1 13/47/1
f 25/48/1 20/50/1 19/45/1
f 24/51/1 20/50/1 25/48/1
f 11/52/1 65/37/1 12/49/1
f 11/52/1 66/53/1 65/37/1
f 24/51/1 21/54/1 20/50/1
f 23/55/1 21/54/1 24/51/1
f 10/56/1 66/53/1 11/52/1
f 23/55/1 22/57/1 21/54/1
f 9/58/1 66/53/1 10/56/1
f 9/58/1 67/59/1 66/53/1
f 8/60/1 67/59/1 9/58/1
f 8/60/1 68/61/1 67/59/1
f 7/62/1 85/63/1 8/60/1
f 85/63/1 68/61/1 8/60/1
f 85/63/1 69/64/1 68/61/1
f 85/63/1 70/65/1 69/64/1
f 7/62/1 86/66/1 85/63/1
f 84/67/1 70/65/1 85/63/1
f 83/68/1 70/65/1 84/67/1
f 7/62/1 87/69/1 86/66/1
f 83/68/1 71/70/1 70/65/1
f 91/71/1 71/70/1 83/68/1
f 7/62/1 88/72/1 87/69/1
f 6/73/1 88/72/1 7/62/1
f 5/74/1 88/72/1 6/73/1
f 90/75/1 71/70/1 91/71/1
f 5/74/1 89/76/1 88/72/1
f 4/77/1 89/76/1 5/74/1
f 89/76/1 71/70/1 90/75/1
f 89/76/1 72/78/1 71/70/1
f 3/79/1 89/76/1 4/77/1
f 3/79/1 72/78/1 89/76/1
f 2/80/1 72/78/1 3/79/1
f 1/81/1 72/78/1 2/80/1
f 1/81/1 82/82/1 72/78/1
f 82/82/1 81/83/1 72/78/1
f 81/83/1 80/84/1 72/78/1
f 80/84/1 73/85/1 72/78/1
f 79/86/1 73/85/1 80/84/1
f 79/86/1 74/87/1 73/85/1
f 79/86/1 75/88/1 74/87/1
f 78/89/1 75/88/1 79/86/1
f 78/89/1 76/90/1 75/88/1
f 77/91/1 76/90/1 78/89/1
o path1
v 0.002127 -0.000685 0.000000
v 0.002047 -0.001101 0.000000
v 0.001835 -0.001524 0.000000
v 0.001532 -0.001871 0.000000
v 0.001378 -0.002001 0.000000
v 0.001091 -0.002242 0.000000
v 0.000937 -0.002372 0.000000
v 0.002202 -0.003589 0.000000
v 0.003466 -0.004806 0.000000
v 0.002665 -0.005719 0.000000
v 0.001997 -0.006932 0.000000
v 0.001857 -0.008279 0.000000
v 0.002277 -0.009467 0.000000
v 0.002478 -0.009856 0.000000
v 0.002555 -0.010258 0.000000
v 0.002504 -0.010647 0.000000
v 0.002322 -0.010817 0.000000
v 0.002016 -0.010275 0.000000
v 0.001494 -0.008860 0.000000
v 0.000991 -0.007539 0.000000
v 0.000569 -0.006716 0.000000
v 0.000234 -0.006402 0.000000
v 0.000008 -0.006502 0.000000
v 0.000103 -0.007119 0.000000
v 0.000562 -0.008517 0.000000
v 0.000947 -0.009752 0.000000
v 0.001223 -0.010879 0.000000
v 0.001330 -0.011653 0.000000
v 0.001375 -0.012169 0.000000
v 0.001491 -0.012621 0.000000
v 0.001651 -0.012910 0.000000
v 0.001803 -0.013229 0.000000
v 0.001891 -0.013761 0.000000
v 0.001897 -0.014399 0.000000
v 0.002266 -0.016019 0.000000
v 0.003294 -0.016641 0.000000
v 0.004489 -0.015969 0.000000
v 0.004928 -0.015105 0.000000
v 0.005013 -0.014218 0.000000
v 0.004720 -0.013544 0.000000
v 0.004592 -0.013352 0.000000
v 0.004723 -0.013254 0.000000
v 0.005143 -0.013227 0.000000
v 0.006595 -0.013446 0.000000
v 0.008146 -0.013962 0.000000
v 0.009147 -0.014559 0.000000
v 0.009422 -0.014820 0.000000
v 0.009691 -0.015007 0.000000
v 0.009894 -0.015078 0.000000
v 0.010002 -0.015039 0.000000
v 0.009988 -0.014930 0.000000
v 0.009853 -0.014761 0.000000
v 0.009579 -0.014262 0.000000
v 0.009584 -0.013739 0.000000
v 0.009867 -0.013410 0.000000
v 0.009924 -0.013345 0.000000
v 0.009758 -0.013294 0.000000
v 0.009404 -0.013269 0.000000
v 0.008755 -0.013192 0.000000
v 0.007818 -0.013007 0.000000
v 0.006795 -0.012753 0.000000
v 0.006324 -0.012624 0.000000
v 0.005450 -0.012383 0.000000
v 0.004980 -0.012254 0.000000
v 0.004987 -0.008127 0.000000
v 0.004967 -0.005210 0.000000
v 0.004796 -0.004025 0.000000
v 0.004330 -0.003565 0.000000
v 0.003922 -0.003179 0.000000
v 0.003490 -0.002587 0.000000
v 0.003129 -0.001916 0.000000
v 0.002781 -0.001066 0.000000
v 0.002766 -0.000647 0.000000
v 0.003072 -0.000351 0.000000
v 0.003354 -0.000116 0.000000
v 0.003290 -0.000019 0.000000
v 0.002840 0.000000 0.000000
v 0.002393 -0.000052 0.000000
v 0.002181 -0.000255 0.000000
v 0.002128 -0.000685 0.000000
v 0.002128 -0.000685 0.000000
v 0.002127 -0.000685 0.000000
v 0.002457 -0.002515 0.000000
v 0.002507 -0.002902 0.000000
v 0.002437 -0.003012 0.000000
v 0.002223 -0.002880 0.000000
v 0.001931 -0.002465 0.000000
v 0.001879 -0.002044 0.000000
v 0.002097 -0.001852 0.000000
v 0.002232 -0.001943 0.000000
v 0.002361 -0.002181 0.000000
vn -0.0000 -0.0000 -1.0000
vt 0.377778 0.000000
vt 0.400000 0.000000
vt 0.388889 0.000000
vt 0.366667 0.000000
vt 0.411111 0.000000
vt 0.422222 0.000000
vt 0.522222 0.000000
vt 0.544444 0.000000
vt 0.533333 0.000000
vt 0.555556 0.000000
vt 0.511111 0.000000
vt 0.566667 0.000000
vt 0.500000 0.000000
vt 0.577778 0.000000
vt 0.488889 0.000000
vt 0.355556 0.000000
vt 0.588889 0.000000
vt 0.433333 0.000000
vt 0.477778 0.000000
vt 0.344444 0.000000
vt 0.600000 0.000000
vt 0.444444 0.000000
vt 0.466667 0.000000
vt 0.611111 0.000000
vt 0.455556 0.000000
vt 0.622222 0.000000
vt 0.633333 0.000000
vt 0.644444 0.000000
vt 0.333333 0.000000
vt 0.655556 0.000000
vt 0.666667 0.000000
vt 0.322222 0.000000
vt 0.677778 0.000000
vt 0.688889 0.000000
vt 0.311111 0.000000
vt 0.700000 0.000000
vt 0.711111 0.000000
vt 0.300000 0.000000
vt 0.177778 0.000000
vt 0.166667 0.000000
vt 0.288889 0.000000
vt 0.277778 0.000000
vt 0.188889 0.000000
vt 0.155556 0.000000
vt 0.200000 0.000000
vt 0.144444 0.000000
vt 0.133333 0.000000
vt 0.266667 0.000000
vt 0.122222 0.000000
vt 0.211111 0.000000
vt 0.255556 0.000000
vt 0.111111 0.000000
vt 0.722222 0.000000
vt 0.222222 0.000000
vt 0.244444 0.000000
vt 0.100000 0.000000
vt 0.233333 0.000000
vt 0.088889 0.000000
vt 0.733333 0.000000
vt 0.077778 0.000000
vt 0.744444 0.000000
vt 0.066667 0.000000
vt 0.933333 0.000000
vt 0.755556 0.000000
vt 0.766667 0.000000
vt 0.944444 0.000000
vt 0.922222 0.000000
vt 0.911111 0.000000
vt 0.955556 0.000000
vt 0.777778 0.000000
vt 1.000000 0.000000
vt 0.966667 0.000000
vt 0.055556 0.000000
vt 0.044444 0.000000
vt 0.988889 0.000000
vt 0.977778 0.000000
vt 0.033333 0.000000
vt 0.788889 0.000000
vt 0.022222 0.000000
vt 0.011111 0.000000
vt 0.000000 0.000000
vt 0.900000 0.000000
vt 0.888889 0.000000
vt 0.877778 0.000000
vt 0.800000 0.000000
vt 0.866667 0.000000
vt 0.811111 0.000000
vt 0.822222 0.000000
vt 0.855556 0.000000
vt 0.833333 0.000000
vt 0.844444 0.000000
s 0
usemtl SVGMat.007
f 126/92/2 128/93/2 127/94/2
f 125/95/2 128/93/2 126/92/2
f 125/95/2 129/96/2 128/93/2
f 125/95/2 130/97/2 129/96/2
f 139/98/2 141/99/2 140/100/2
f 139/98/2 142/101/2 141/99/2
f 138/102/2 142/101/2 139/98/2
f 138/102/2 143/103/2 142/101/2
f 137/104/2 143/103/2 138/102/2
f 137/104/2 144/105/2 143/103/2
f 136/106/2 144/105/2 137/104/2
f 124/107/2 130/97/2 125/95/2
f 136/106/2 145/108/2 144/105/2
f 124/107/2 131/109/2 130/97/2
f 135/110/2 145/108/2 136/106/2
f 123/111/2 131/109/2 124/107/2
f 135/110/2 146/112/2 145/108/2
f 123/111/2 132/113/2 131/109/2
f 134/114/2 146/112/2 135/110/2
f 134/114/2 147/115/2 146/112/2
f 123/111/2 133/116/2 132/113/2
f 134/114/2 148/117/2 147/115/2
f 134/114/2 149/118/2 148/117/2
f 134/114/2 150/119/2 149/118/2
f 123/111/2 134/114/2 133/116/2
f 122/120/2 134/114/2 123/111/2
f 122/120/2 150/119/2 134/114/2
f 122/120/2 151/121/2 150/119/2
f 122/120/2 152/122/2 151/121/2
f 121/123/2 152/122/2 122/120/2
f 121/123/2 153/124/2 152/122/2
f 121/123/2 154/125/2 153/124/2
f 120/126/2 154/125/2 121/123/2
f 120/126/2 155/127/2 154/125/2
f 120/126/2 156/128/2 155/127/2
f 119/129/2 108/130/2 120/126/2
f 108/130/2 107/131/2 120/126/2
f 107/131/2 156/128/2 120/126/2
f 118/132/2 108/130/2 119/129/2
f 117/133/2 108/130/2 118/132/2
f 117/133/2 109/134/2 108/130/2
f 106/135/2 156/128/2 107/131/2
f 117/133/2 110/136/2 109/134/2
f 105/137/2 156/128/2 106/135/2
f 104/138/2 156/128/2 105/137/2
f 116/139/2 110/136/2 117/133/2
f 103/140/2 156/128/2 104/138/2
f 116/139/2 111/141/2 110/136/2
f 115/142/2 111/141/2 116/139/2
f 102/143/2 156/128/2 103/140/2
f 102/143/2 157/144/2 156/128/2
f 115/142/2 112/145/2 111/141/2
f 114/146/2 112/145/2 115/142/2
f 101/147/2 157/144/2 102/143/2
f 114/146/2 113/148/2 112/145/2
f 100/149/2 157/144/2 101/147/2
f 100/149/2 158/150/2 157/144/2
f 99/151/2 158/150/2 100/149/2
f 99/151/2 159/152/2 158/150/2
f 98/153/2 176/154/2 99/151/2
f 176/154/2 159/152/2 99/151/2
f 176/154/2 160/155/2 159/152/2
f 176/154/2 161/156/2 160/155/2
f 98/153/2 177/157/2 176/154/2
f 175/158/2 161/156/2 176/154/2
f 174/159/2 161/156/2 175/158/2
f 98/153/2 178/160/2 177/157/2
f 174/159/2 162/161/2 161/156/2
f 182/162/2 162/161/2 174/159/2
f 98/153/2 179/163/2 178/160/2
f 97/164/2 179/163/2 98/153/2
f 96/165/2 179/163/2 97/164/2
f 181/166/2 162/161/2 182/162/2
f 96/165/2 180/167/2 179/163/2
f 95/168/2 180/167/2 96/165/2
f 180/167/2 162/161/2 181/166/2
f 180/167/2 163/169/2 162/161/2
f 94/170/2 180/167/2 95/168/2
f 94/170/2 163/169/2 180/167/2
f 93/171/2 163/169/2 94/170/2
f 92/172/2 163/169/2 93/171/2
f 92/172/2 173/173/2 163/169/2
f 173/173/2 172/174/2 163/169/2
f 172/174/2 171/175/2 163/169/2
f 171/175/2 164/176/2 163/169/2
f 170/177/2 164/176/2 171/175/2
f 170/177/2 165/178/2 164/176/2
f 170/177/2 166/179/2 165/178/2
f 169/180/2 166/179/2 170/177/2
f 169/180/2 167/181/2 166/179/2
f 168/182/2 167/181/2 169/180/2
